<svg width="267" height="182" viewBox="0 0 267 182" fill="none" xmlns="http://www.w3.org/2000/svg">
<path d="M50.3213 102.247L218.985 102.271V102.328L46.0896 108.233L50.3213 102.247Z" fill="#EA0029"/>
<path d="M75.1027 79.2809H75.1794L73.1426 89.8571H68.9589L75.1027 79.2809ZM53.4124 97.8H64.3438L66.4093 94.2428H72.2944L71.6234 97.8H82.3967L83.8344 75.1095H69.3758L53.4124 97.8ZM185.443 91.1C184.676 93.0714 183.789 93.619 182.26 93.5809C181.422 93.5809 180.875 93.3476 180.626 92.7571C180.305 92.0143 180.583 91.3 181.106 89.8333L182.189 86.7809C182.912 84.8238 183.478 83.8428 185.447 83.8428C185.757 83.8108 186.07 83.8599 186.355 83.9852C186.64 84.1105 186.887 84.3077 187.072 84.5571C187.345 85.0333 187.23 85.7095 186.77 87.0285H195.967C196.657 82.6143 194.563 79.7904 187.139 79.7904C178.451 79.7904 174.53 81.5857 172.359 87.7143C170.188 93.8428 171.305 98.0952 180.382 98.0952C188.615 98.0952 192.607 96.8238 194.874 91.1H185.443ZM130.412 75.0952H114.419L106.205 97.8H123.501C130.761 97.8 132.252 96.1047 134.322 90.4L136.771 83.5428C138.645 78.3571 137.677 75.0952 130.412 75.0952ZM126.736 82.2952L123.86 90.3904C123.199 92.1381 122.744 92.7952 120.832 92.7952H118.493L123.137 79.9666H124.819C126.736 79.9428 127.392 80.5428 126.736 82.2952ZM159.003 91.7619C158.327 93.6666 157.053 95.3428 154.359 96.7381C152.255 97.8238 149.088 98.1143 144.53 98.1143C135.468 98.1143 134.346 93.9095 136.536 87.7381C138.726 81.5666 142.627 79.8143 151.316 79.8143C160.858 79.8143 162.022 83.4 159.727 89.8571H145.282C144.832 91.0428 144.372 92.1619 144.75 92.9619C145.081 93.6571 145.786 93.8619 146.735 93.8619C148.536 93.8619 149.394 93.0428 149.907 91.7619H159.003ZM151.747 86.7809C152.327 85.2571 152.351 83.8571 150.166 83.8571C147.981 83.8571 147.223 84.619 146.385 86.7809H151.747ZM166.695 74.1143L158.102 97.8H167.442L175.853 74.1143H166.695ZM97.9816 92.3571C95.4656 92.3571 94.6892 91.6476 95.7914 88.6L98.1876 82.0952C98.9113 80.1 99.9273 79.9047 101.887 79.9047H109.325L111.151 74.9047H100.608C93.1748 74.9047 89.777 75.4238 87.7306 81.3619L84.9702 88.9809C83.312 93.5619 82.3823 97.8095 89.8201 97.8095H103.977L105.98 92.3666L97.9816 92.3571ZM204.564 98.0714C213.253 98.0714 217.173 96.2762 219.344 90.1476C221.515 84.019 220.413 79.7666 211.355 79.7666C202.666 79.7666 198.741 81.5571 196.571 87.6904C194.4 93.8238 195.516 98.0952 204.579 98.0952L204.564 98.0714ZM204.852 92.7571C204.497 92.0333 204.809 91.3 205.331 89.8333L206.414 86.7809C207.123 84.8762 207.665 83.8428 209.769 83.8428C210.067 83.8099 210.368 83.8591 210.639 83.9851C210.91 84.1111 211.142 84.309 211.307 84.5571C211.609 85.1 211.432 85.8666 210.828 87.5095L209.582 90.9285C208.796 93.0428 208.048 93.5523 206.5 93.5571C205.657 93.5571 205.101 93.2952 204.852 92.7571Z" fill="white"/>
</svg>
