<svg width="267" height="182" viewBox="0 0 267 182" fill="none" xmlns="http://www.w3.org/2000/svg">
<g clip-path="url(#clip0_131_7585)">
<path d="M102.774 116.057C102.174 116.376 101.499 116.533 100.818 116.512C100.294 116.52 99.7731 116.441 99.2758 116.28C98.868 116.144 98.4933 115.925 98.1759 115.637C97.8812 115.372 97.6528 115.042 97.5087 114.674C97.3537 114.285 97.2771 113.87 97.2833 113.452C97.253 112.997 97.3174 112.541 97.4725 112.111C97.6276 111.681 97.87 111.288 98.1849 110.955C98.5306 110.646 98.9351 110.408 99.3747 110.254C99.8143 110.101 100.28 110.036 100.745 110.063C101.422 110.047 102.093 110.191 102.702 110.482C103.274 110.762 103.72 111.242 103.955 111.829L104.767 111.463C104.606 111.092 104.373 110.756 104.081 110.473C103.796 110.201 103.47 109.973 103.117 109.795C102.752 109.613 102.364 109.481 101.963 109.403C101.559 109.322 101.148 109.28 100.736 109.278C100.125 109.27 99.5168 109.357 98.9332 109.537C98.4225 109.696 97.9499 109.957 97.5448 110.304C97.1473 110.646 96.8382 111.077 96.6432 111.561C96.2297 112.62 96.2105 113.79 96.5891 114.861C96.7565 115.343 97.0342 115.779 97.4005 116.137C97.7909 116.513 98.2582 116.802 98.771 116.984C100.218 117.462 101.793 117.389 103.189 116.779C103.922 116.409 104.511 115.81 104.866 115.076L104.036 114.683C103.756 115.25 103.318 115.727 102.774 116.057Z" fill="white"/>
<path d="M114.882 113.622C115.161 113.543 115.428 113.426 115.675 113.274C115.925 113.108 116.135 112.888 116.288 112.632C116.463 112.331 116.551 111.988 116.541 111.641C116.564 111.244 116.456 110.85 116.234 110.518C116.044 110.242 115.786 110.018 115.486 109.867C115.175 109.713 114.839 109.613 114.494 109.572C114.165 109.531 113.834 109.51 113.502 109.51H109.048V117.136H109.95V113.755H112.988L115.468 117.136H116.631L114.079 113.738C114.35 113.728 114.619 113.689 114.882 113.622ZM109.977 112.944V110.33H113.286C113.605 110.332 113.924 110.353 114.241 110.393C114.497 110.411 114.747 110.475 114.981 110.58C115.178 110.665 115.349 110.801 115.477 110.973C115.594 111.178 115.656 111.41 115.656 111.646C115.656 111.882 115.594 112.114 115.477 112.319C115.353 112.496 115.181 112.636 114.981 112.721C114.747 112.826 114.497 112.889 114.241 112.908C113.927 112.945 113.611 112.963 113.295 112.962L109.977 112.944Z" fill="white"/>
<path d="M128.283 113.962C128.313 114.325 128.256 114.69 128.114 115.027C127.973 115.364 127.753 115.662 127.471 115.897C126.801 116.305 126.03 116.521 125.244 116.521C124.458 116.521 123.687 116.305 123.017 115.897C122.735 115.662 122.515 115.364 122.374 115.027C122.233 114.69 122.175 114.325 122.206 113.962V109.502H121.304V113.962C121.277 114.545 121.401 115.125 121.665 115.647C121.872 116.057 122.183 116.407 122.566 116.664C122.958 116.914 123.396 117.084 123.856 117.164C124.307 117.251 124.766 117.296 125.226 117.297C125.689 117.296 126.151 117.251 126.605 117.164C127.061 117.082 127.496 116.912 127.886 116.664C128.286 116.413 128.612 116.063 128.832 115.647C129.096 115.125 129.22 114.545 129.193 113.962V109.502H128.291L128.283 113.962Z" fill="white"/>
<path d="M134.965 109.51H134.026V117.145H134.965V109.51Z" fill="white"/>
<path d="M146.026 113.318C145.683 113.157 145.318 113.043 144.943 112.98C144.538 112.899 144.132 112.846 143.709 112.801L142.482 112.685C142.116 112.659 141.754 112.6 141.4 112.507C141.121 112.437 140.859 112.31 140.634 112.132C140.538 112.049 140.462 111.946 140.412 111.83C140.363 111.714 140.339 111.589 140.346 111.463C140.343 111.24 140.413 111.021 140.543 110.839C140.692 110.657 140.88 110.511 141.094 110.411C141.358 110.294 141.637 110.213 141.923 110.17C142.275 110.117 142.631 110.093 142.987 110.099C143.436 110.086 143.886 110.137 144.321 110.25C144.637 110.338 144.939 110.464 145.222 110.625C145.437 110.743 145.635 110.891 145.809 111.062C145.953 111.213 146.071 111.338 146.143 111.428L146.828 110.883C146.672 110.678 146.489 110.492 146.287 110.33C146.038 110.129 145.766 109.958 145.475 109.822C145.124 109.667 144.759 109.544 144.384 109.456C143.931 109.36 143.469 109.312 143.005 109.314C142.518 109.31 142.031 109.355 141.553 109.447C141.153 109.522 140.767 109.658 140.408 109.849C140.098 110.019 139.838 110.265 139.651 110.562C139.464 110.878 139.37 111.24 139.381 111.606C139.377 111.926 139.478 112.239 139.669 112.498C139.871 112.752 140.134 112.951 140.435 113.078C140.782 113.223 141.145 113.325 141.517 113.381C141.923 113.452 142.329 113.506 142.753 113.55L143.979 113.675C144.345 113.707 144.707 113.772 145.061 113.871C145.344 113.941 145.606 114.076 145.827 114.264C145.921 114.35 145.995 114.455 146.046 114.572C146.095 114.689 146.119 114.815 146.116 114.942C146.125 115.214 146.028 115.479 145.845 115.682C145.651 115.885 145.414 116.043 145.151 116.146C144.861 116.263 144.559 116.347 144.249 116.396C143.95 116.439 143.649 116.463 143.347 116.467C142.852 116.477 142.359 116.423 141.878 116.307C141.531 116.221 141.197 116.089 140.886 115.914C140.651 115.777 140.438 115.606 140.255 115.406L139.841 114.915L139.119 115.522C139.282 115.7 139.47 115.896 139.687 116.101C139.922 116.328 140.19 116.52 140.48 116.672C140.842 116.866 141.227 117.012 141.626 117.109C142.153 117.237 142.696 117.296 143.24 117.288C143.816 117.297 144.391 117.234 144.952 117.1C145.381 117.002 145.789 116.833 146.161 116.601C146.456 116.412 146.7 116.155 146.873 115.852C147.032 115.581 147.116 115.273 147.116 114.96C147.134 114.593 147.032 114.231 146.828 113.925C146.618 113.657 146.341 113.448 146.026 113.318Z" fill="white"/>
<path d="M152.258 113.577H157.226V112.756H152.258V110.33H158.199V109.51H151.329V117.136H158.326V116.324H152.258V113.577Z" fill="white"/>
<path d="M168.636 113.318C168.292 113.159 167.928 113.045 167.554 112.98C167.149 112.899 166.734 112.846 166.319 112.801L165.093 112.685C164.725 112.658 164.359 112.599 164.002 112.507C163.726 112.437 163.467 112.309 163.244 112.132C163.147 112.051 163.071 111.948 163.02 111.831C162.97 111.715 162.948 111.589 162.956 111.463C162.949 111.239 163.019 111.019 163.154 110.839C163.298 110.656 163.483 110.509 163.695 110.411C163.963 110.294 164.245 110.213 164.534 110.17C164.886 110.117 165.241 110.093 165.598 110.098C166.047 110.087 166.497 110.138 166.932 110.25C167.247 110.339 167.55 110.465 167.834 110.625C168.046 110.746 168.243 110.893 168.42 111.062L168.754 111.428L169.429 110.883C169.274 110.68 169.096 110.494 168.897 110.33C168.649 110.129 168.377 109.958 168.086 109.822C167.732 109.667 167.364 109.545 166.986 109.456C166.533 109.359 166.071 109.311 165.607 109.314C165.123 109.31 164.639 109.355 164.164 109.447C163.763 109.521 163.377 109.656 163.019 109.849C162.709 110.019 162.449 110.265 162.262 110.562C162.074 110.878 161.981 111.24 161.992 111.606C161.984 111.927 162.086 112.241 162.28 112.498C162.479 112.752 162.739 112.951 163.037 113.078C163.384 113.221 163.747 113.323 164.119 113.381C164.524 113.452 164.94 113.506 165.355 113.55L166.589 113.675C166.956 113.708 167.318 113.774 167.672 113.871C167.951 113.943 168.21 114.077 168.428 114.264C168.526 114.347 168.604 114.452 168.653 114.57C168.703 114.687 168.725 114.814 168.718 114.942C168.727 115.214 168.63 115.479 168.447 115.682C168.256 115.885 168.022 116.043 167.762 116.146C167.471 116.263 167.17 116.347 166.86 116.396C166.561 116.439 166.26 116.463 165.958 116.467C165.467 116.477 164.975 116.423 164.497 116.306C164.15 116.223 163.816 116.091 163.506 115.914C163.267 115.778 163.052 115.606 162.866 115.406C162.703 115.218 162.568 115.058 162.46 114.915L161.739 115.522C161.901 115.7 162.09 115.896 162.298 116.101C162.535 116.326 162.802 116.518 163.091 116.672C163.456 116.865 163.843 117.012 164.245 117.109C164.771 117.236 165.31 117.296 165.851 117.288C166.43 117.297 167.009 117.234 167.572 117.1C167.998 117.002 168.403 116.833 168.772 116.601C169.069 116.412 169.316 116.155 169.493 115.852C169.643 115.578 169.723 115.271 169.728 114.96C169.748 114.593 169.647 114.229 169.438 113.925C169.23 113.657 168.953 113.447 168.636 113.318Z" fill="white"/>
<path fill-rule="evenodd" clip-rule="evenodd" d="M181.996 71.1455H184.036C185.164 71.1455 186.098 71.1672 186.119 71.196C186.134 71.2321 183.023 74.7112 172.259 86.6282L172.267 94.2433H168.795V86.6644L161.72 79.0276C157.836 74.8339 154.624 71.3548 154.595 71.3043C154.559 71.2393 154.986 71.2177 158.776 71.2105L164.346 77.0354C167.406 80.2331 170.046 82.9976 170.495 83.51L181.996 71.1455Z" fill="white"/>
<path d="M198.125 71.1748L194.993 71.1387L186.906 82.6009C182.463 88.9023 178.818 94.0993 178.804 94.1499C178.782 94.222 179.224 94.2365 180.851 94.2437C182.761 94.2437 182.941 94.2293 183.057 94.1137C183.122 94.0416 186.175 89.7324 189.835 84.5282C193.502 79.3312 196.526 75.0653 196.555 75.0581C196.584 75.0509 198.327 77.4906 200.425 80.4716C202.523 83.4599 204.237 85.914 204.223 85.9213C204.208 85.9357 203.941 85.7553 203.622 85.5171C203.304 85.2788 202.747 84.9035 202.393 84.6798C202.038 84.4488 201.322 84.059 200.801 83.8136C200.28 83.561 199.55 83.2434 199.173 83.099C198.797 82.9619 198.03 82.7092 197.473 82.5505C196.916 82.3844 195.825 82.1246 195.05 81.9658C194.277 81.8142 193.618 81.7059 193.596 81.7348C193.575 81.7636 193.104 82.4133 192.562 83.1784C192.02 83.9435 191.579 84.5859 191.579 84.6003C191.579 84.622 191.643 84.6365 191.723 84.6365C191.802 84.6365 192.381 84.7375 193.004 84.8602C193.632 84.9829 194.667 85.2139 195.304 85.3727C195.94 85.5315 197.075 85.8707 197.836 86.1161C198.588 86.3688 199.65 86.7586 200.186 86.9896C200.721 87.2133 201.553 87.5959 202.031 87.8268C202.508 88.0651 203.384 88.5487 203.984 88.9095C204.577 89.2632 205.351 89.7541 205.698 89.9995C206.045 90.2449 206.609 90.678 206.964 90.9522C207.311 91.2266 208.02 91.8618 208.526 92.3598C209.04 92.8578 209.619 93.4642 209.814 93.7167L210.168 94.1643C213.901 94.1643 214.364 94.1499 214.357 94.0777C214.357 94.0271 210.704 88.8518 206.241 82.5793L198.125 71.1748Z" fill="black"/>
<path d="M198.125 71.1748L194.993 71.1387L186.906 82.6009C182.463 88.9023 178.818 94.0993 178.804 94.1499C178.782 94.222 179.224 94.2365 180.851 94.2437C182.761 94.2437 182.941 94.2293 183.057 94.1137C183.122 94.0416 186.175 89.7324 189.835 84.5282C193.502 79.3312 196.526 75.0653 196.555 75.0581C196.584 75.0509 198.327 77.4906 200.425 80.4716C202.523 83.4599 204.237 85.914 204.223 85.9213C204.208 85.9357 203.941 85.7553 203.622 85.5171C203.304 85.2788 202.747 84.9035 202.393 84.6798C202.038 84.4488 201.322 84.059 200.801 83.8136C200.28 83.561 199.55 83.2434 199.173 83.099C198.797 82.9619 198.03 82.7092 197.473 82.5505C196.916 82.3844 195.825 82.1246 195.05 81.9658C194.277 81.8142 193.618 81.7059 193.596 81.7348C193.575 81.7636 193.104 82.4133 192.562 83.1784C192.02 83.9435 191.579 84.5859 191.579 84.6003C191.579 84.622 191.643 84.6365 191.723 84.6365C191.802 84.6365 192.381 84.7375 193.004 84.8602C193.632 84.9829 194.667 85.2139 195.304 85.3727C195.94 85.5315 197.075 85.8707 197.836 86.1161C198.588 86.3688 199.65 86.7586 200.186 86.9896C200.721 87.2133 201.553 87.5959 202.031 87.8268C202.508 88.0651 203.384 88.5487 203.984 88.9095C204.577 89.2632 205.351 89.7541 205.698 89.9995C206.045 90.2449 206.609 90.678 206.964 90.9522C207.311 91.2266 208.02 91.8618 208.526 92.3598C209.04 92.8578 209.619 93.4642 209.814 93.7167L210.168 94.1643C213.901 94.1643 214.364 94.1499 214.357 94.0777C214.357 94.0271 210.704 88.8518 206.241 82.5793L198.125 71.1748Z" fill="white"/>
<path d="M135.338 71.5936L135.353 70.7852C134.723 70.7996 134.412 70.8285 134.253 70.8573C134.094 70.8934 133.602 70.9728 133.168 71.0378C132.727 71.1028 131.881 71.2832 131.287 71.4348C130.687 71.5864 129.783 71.8607 129.262 72.0483C128.741 72.2288 127.7 72.6835 126.947 73.0588C125.942 73.5569 125.363 73.8961 124.777 74.3292C124.336 74.6613 123.685 75.2243 123.33 75.5852C122.969 75.9533 122.47 76.5379 122.224 76.8916C121.971 77.2453 121.602 77.8588 121.406 78.2558C121.218 78.6528 120.972 79.2375 120.871 79.5551C120.77 79.8727 120.632 80.4068 120.56 80.7461C120.473 81.1936 120.437 81.735 120.437 82.731C120.437 83.7921 120.466 84.2397 120.567 84.716C120.64 85.0553 120.799 85.6255 120.914 85.9792C121.03 86.3329 121.269 86.9031 121.442 87.2423L121.754 87.8559C123.019 88.0796 123.446 88.1013 124.307 88.0796C125.218 88.058 125.558 88.0147 126.152 87.8631C126.549 87.7549 127.135 87.5383 127.454 87.3795C127.772 87.2207 128.242 86.9319 128.502 86.7371C128.763 86.5494 129.204 86.1524 129.479 85.8637C129.761 85.5677 130.159 85.0841 130.361 84.7882C130.564 84.4922 130.875 83.9509 131.063 83.5972C131.251 83.2435 131.526 82.6227 131.685 82.2257C131.837 81.8288 132.061 81.1503 132.184 80.71C132.401 79.9449 132.409 79.8655 132.409 78.458C132.409 77.6496 132.387 76.9927 132.351 76.9927C132.322 76.9927 131.989 77.1298 131.613 77.2886C131.237 77.4547 130.564 77.6784 130.13 77.7867C129.696 77.9021 129.117 78.0104 128.842 78.0321L128.358 78.0754V81.0348C128.669 81.0348 129.161 80.9482 129.66 80.8544C130.159 80.7533 130.586 80.6812 130.607 80.6883C130.636 80.7028 130.492 81.0059 130.296 81.3596C130.094 81.7133 129.754 82.2474 129.53 82.5434C129.298 82.8393 128.951 83.2146 128.756 83.3879C128.553 83.5539 128.199 83.8138 127.96 83.9582C127.721 84.0952 127.266 84.2974 126.947 84.3985C126.513 84.5428 126.166 84.5934 125.537 84.6222C125.081 84.6367 124.524 84.6294 124.307 84.5934C123.924 84.5355 123.916 84.5284 123.815 84.2108C123.757 84.0303 123.699 83.4817 123.678 82.9837C123.649 82.2403 123.67 81.9515 123.801 81.3235C123.887 80.9049 124.061 80.3058 124.191 79.9882C124.321 79.6706 124.575 79.1509 124.763 78.8333C124.951 78.5157 125.276 78.0249 125.479 77.7506C125.689 77.4763 126.246 76.8556 126.723 76.3792C127.208 75.8956 127.938 75.2532 128.358 74.9428C128.777 74.6324 129.465 74.1704 129.891 73.9178C130.325 73.6652 130.962 73.3115 131.324 73.131C131.678 72.9506 132.257 72.6907 132.604 72.5392C132.958 72.3948 133.711 72.1205 134.289 71.9328L135.338 71.5936Z" fill="white"/>
<path d="M148.699 79.822C148.633 79.7714 148.395 79.7354 148.178 79.7354C147.895 79.7354 147.679 79.7858 147.461 79.9014C147.274 80.0024 147.042 80.219 146.876 80.4572C146.724 80.6737 146.514 81.0995 146.413 81.3955C146.311 81.6914 146.145 82.3267 146.036 82.803C145.935 83.2794 145.747 83.9795 145.631 84.3549C145.508 84.7302 145.284 85.3654 145.125 85.7624C144.966 86.1594 144.655 86.8379 144.424 87.2782C144.199 87.7185 143.824 88.3465 143.599 88.6857C143.374 89.025 142.94 89.6096 142.622 89.985C142.311 90.3603 141.797 90.8945 141.479 91.1615C141.169 91.4358 140.597 91.8617 140.221 92.1143C139.845 92.367 139.288 92.6845 138.992 92.8217C138.694 92.9589 138.239 93.1392 137.978 93.2187C137.718 93.3053 137.212 93.4425 136.858 93.5146C136.496 93.594 135.903 93.6878 135.533 93.7167L134.868 93.7745V94.5684C136.018 94.7056 136.683 94.7489 137.089 94.7489C137.501 94.7489 138.231 94.6984 138.717 94.6334C139.208 94.5757 139.917 94.453 140.293 94.3735C140.669 94.2942 141.226 94.1498 141.523 94.0488C141.819 93.9549 142.326 93.7528 142.644 93.6012C142.962 93.4569 143.454 93.1898 143.729 93.0093C144.004 92.8289 144.445 92.5041 144.706 92.2804C144.966 92.0637 145.386 91.6307 145.638 91.3132C145.892 91.0028 146.232 90.5192 146.391 90.2376C146.55 89.9561 146.84 89.3571 147.027 88.9022C147.208 88.4475 147.541 87.5164 147.765 86.8451C147.983 86.1738 148.286 85.1345 148.431 84.5353C148.576 83.9362 148.742 83.366 148.8 83.2577C148.858 83.1422 149.038 82.9546 149.205 82.8391C149.379 82.7164 149.574 82.6225 149.638 82.6225C149.733 82.6225 149.754 82.5865 149.726 82.4999C149.704 82.4277 149.494 81.8141 149.256 81.1428C149.017 80.4716 148.771 79.8724 148.699 79.822Z" fill="white"/>
<path d="M142.528 71.2547C141.834 71.1175 141.595 71.0742 141.552 71.0742C141.501 71.0742 141.342 71.2114 141.19 71.3774C141.038 71.5506 140.843 71.8466 140.749 72.0487C140.662 72.2435 140.583 72.525 140.583 72.6622C140.583 72.7993 140.655 73.0592 140.749 73.2324C140.836 73.4129 141.024 73.6439 141.161 73.7593C141.299 73.8676 141.595 74.0553 141.812 74.1708C142.029 74.2863 142.521 74.4884 142.897 74.611L143.585 74.8348C145.515 72.9004 146.051 72.3157 146.022 72.2941C145.993 72.2652 145.646 72.1281 145.249 71.9909L144.524 71.7311C143.592 72.655 143.483 72.7272 143.331 72.6911C143.23 72.6622 142.992 72.5756 142.796 72.489C142.601 72.4096 142.399 72.2724 142.34 72.193C142.29 72.1136 142.246 71.9693 142.246 71.8682C142.246 71.7672 142.311 71.5867 142.39 71.4712L142.528 71.2547Z" fill="white"/>
<path d="M147.751 73.0515C147.469 72.9143 147.238 72.7988 147.222 72.7988C147.215 72.7988 146.651 73.3474 145.979 74.0187C144.749 75.2313 144.749 75.2386 144.966 75.289C145.081 75.3179 145.494 75.484 145.87 75.6644C146.247 75.8376 146.868 76.1913 147.245 76.4367C147.62 76.6894 148.142 77.0791 148.402 77.3029C148.663 77.5267 149.075 77.9453 149.32 78.234C149.567 78.5227 149.936 79.028 150.138 79.3673C150.34 79.7065 150.601 80.2406 150.724 80.5583C150.847 80.8758 151.013 81.4316 151.086 81.7853C151.172 82.204 151.223 82.7453 151.223 83.3011C151.223 83.7775 151.172 84.4488 151.115 84.8024C151.056 85.149 150.92 85.6975 150.818 86.0296C150.709 86.3544 150.492 86.9173 150.319 87.271C150.152 87.632 149.849 88.195 149.638 88.5343C149.422 88.8734 149.038 89.422 148.778 89.7613C148.511 90.1005 147.881 90.779 147.375 91.2771L146.456 92.1794C146.449 92.9156 146.456 92.9372 146.608 92.8939C146.702 92.865 146.984 92.7496 147.245 92.6341C147.505 92.5186 148.026 92.2371 148.402 92.0133C148.778 91.7895 149.415 91.3637 149.813 91.0677C150.211 90.7646 150.811 90.2449 151.151 89.9056C151.491 89.5664 151.997 89.0034 152.272 88.6425C152.554 88.2888 152.93 87.7041 153.111 87.3433C153.299 86.9896 153.552 86.4049 153.675 86.044C153.806 85.6903 153.972 85.0695 154.059 84.6725C154.174 84.1239 154.204 83.6836 154.204 82.8319C154.204 82.1174 154.167 81.4822 154.088 81.0636C154.022 80.7099 153.914 80.2046 153.834 79.9447C153.762 79.6848 153.595 79.2157 153.465 78.8981C153.343 78.5805 153.104 78.0969 152.938 77.8153C152.779 77.5411 152.467 77.0647 152.243 76.7688C152.026 76.4729 151.549 75.9314 151.194 75.5778C150.833 75.2169 150.34 74.7766 150.102 74.5889C149.863 74.4085 149.349 74.0476 148.959 73.7805C148.576 73.5206 148.026 73.1886 147.751 73.0515Z" fill="white"/>
<path d="M134.839 84.1527C134.81 84.0301 134.752 83.9867 134.6 83.9939C134.492 84.0012 133.899 84.095 133.284 84.2105C132.669 84.326 132.148 84.427 132.141 84.4342C132.126 84.4486 132.206 84.9611 132.307 85.5747C132.416 86.1882 132.474 86.7151 132.438 86.7368C132.409 86.7657 131.888 86.8667 131.295 86.975C130.694 87.0761 130.202 87.1699 130.188 87.1843C130.181 87.1916 130.275 87.769 130.398 88.4619C130.521 89.1548 130.636 89.7396 130.651 89.7612C130.673 89.7829 131.28 89.689 132.003 89.5591C132.727 89.4292 133.32 89.3209 133.327 89.3064C133.334 89.2992 133.248 88.7867 133.139 88.1732C133.023 87.5597 132.958 87.0328 132.98 87.0111C133.009 86.9895 133.472 86.8956 134.007 86.8017C134.542 86.7151 135.049 86.6285 135.128 86.6069C135.273 86.5781 135.273 86.5636 135.078 85.4448C134.969 84.824 134.86 84.2394 134.839 84.1527Z" fill="white"/>
<path fill-rule="evenodd" clip-rule="evenodd" d="M138.203 73.8966C138.637 73.9182 138.832 73.9616 139.179 74.1348C139.418 74.2575 139.808 74.5462 140.047 74.7845C140.286 75.0226 140.619 75.4268 140.792 75.6867C140.958 75.9465 141.219 76.4013 141.364 76.6972C141.501 76.9931 141.747 77.6139 141.899 78.0686C142.051 78.5233 142.239 79.2235 142.319 79.6205C142.399 80.0175 142.499 80.7321 142.543 81.2085C142.586 81.6849 142.601 82.4355 142.579 82.8687C142.55 83.309 142.499 83.9225 142.463 84.2401C142.427 84.5577 142.34 85.0774 142.283 85.395C142.217 85.7125 142.065 86.2828 141.949 86.6581C141.826 87.0335 141.617 87.5893 141.479 87.8852C141.342 88.1812 141.06 88.6864 140.85 89.004C140.64 89.3216 140.249 89.8196 139.967 90.1156C139.692 90.4043 139.222 90.8301 138.926 91.0467C138.629 91.2705 138.087 91.6097 137.733 91.7974C137.371 91.9851 136.785 92.2305 136.431 92.3532C136.069 92.4759 135.469 92.6347 135.092 92.7141C134.716 92.7935 134.043 92.8945 133.609 92.9451C133.117 92.9956 132.358 93.01 131.62 92.9884C130.962 92.9595 130.101 92.8945 129.703 92.8368C129.305 92.7791 128.669 92.6636 128.293 92.5841C127.917 92.5048 127.273 92.3315 126.115 91.9634L126.123 91.0972L126.499 91.1549C126.709 91.1911 127.142 91.2488 127.461 91.2849C127.779 91.321 128.56 91.3499 129.197 91.3499C129.833 91.3499 130.694 91.2994 131.114 91.2488C131.533 91.1911 132.213 91.0612 132.633 90.9529C133.052 90.8446 133.624 90.6642 133.913 90.5487C134.202 90.4331 134.673 90.2239 134.962 90.0794C135.251 89.9351 135.779 89.6175 136.133 89.3722C136.496 89.1339 137.06 88.6719 137.392 88.3544C137.733 88.0367 138.246 87.4521 138.542 87.0551C138.861 86.6437 139.266 85.9652 139.512 85.4671C139.751 84.9907 139.939 84.5504 139.939 84.4927C139.939 84.4278 139.794 84.3267 139.599 84.2473C139.403 84.1751 139.056 84.0163 138.817 83.8936C138.579 83.7781 138.188 83.5472 137.949 83.3883C137.711 83.2295 137.262 82.847 136.951 82.551C136.64 82.2479 136.221 81.757 136.011 81.4612C135.808 81.1652 135.533 80.696 135.41 80.4145C135.28 80.1402 135.121 79.6494 135.049 79.3318C134.962 78.9565 134.919 78.4873 134.919 77.9964C134.926 77.5417 134.976 77.0364 135.049 76.7333C135.114 76.459 135.266 76.0259 135.381 75.7805C135.505 75.5279 135.787 75.1309 136.011 74.8855C136.242 74.64 136.524 74.3875 136.647 74.308C136.763 74.2358 137.045 74.1131 137.262 74.0265C137.558 73.9182 137.797 73.8822 138.203 73.8966ZM136.756 78.7904C136.749 78.3718 136.778 78.2851 136.994 77.9676C137.139 77.7655 137.371 77.549 137.558 77.4478C137.79 77.3179 137.985 77.2746 138.311 77.2746C138.572 77.2746 138.861 77.3324 139.035 77.4118C139.194 77.4767 139.447 77.65 139.606 77.7871C139.758 77.9243 139.96 78.1625 140.054 78.3213C140.149 78.48 140.293 78.8049 140.38 79.0431C140.503 79.3895 140.539 79.6927 140.568 80.5227C140.583 81.1002 140.576 81.5911 140.539 81.6199C140.51 81.6415 140.17 81.5911 139.794 81.49C139.418 81.3962 138.81 81.1796 138.456 80.9992C138.065 80.8115 137.667 80.5516 137.458 80.3495C137.269 80.1691 137.038 79.8442 136.937 79.6421C136.806 79.3606 136.756 79.1369 136.756 78.7904Z" fill="white"/>
<path d="M111.431 71.3482L110.816 71.1894C92.363 71.1461 90.3738 71.1605 90.3449 71.2327C90.3231 71.2832 90.3159 76.473 90.3231 82.7672L90.3449 94.2078H93.8169L93.8532 74.3943L110.888 74.4303C111.619 74.8129 112.009 75.1016 112.226 75.3253C112.443 75.5491 112.711 75.91 112.82 76.1266C112.928 76.3431 113.044 76.6679 113.087 76.8484C113.131 77.0288 113.167 77.368 113.167 77.6063C113.167 77.8445 113.102 78.2486 113.029 78.5085C112.95 78.7684 112.791 79.1221 112.675 79.3025C112.559 79.4829 112.32 79.7644 112.147 79.9305C111.973 80.1037 111.662 80.3275 111.467 80.4358C111.264 80.5368 110.939 80.6667 110.744 80.7245C110.454 80.7966 108.834 80.8183 102.837 80.8183H95.2999V84.283C95.7772 84.348 96.356 84.449 96.8913 84.5428C97.4265 84.6439 98.3886 84.8532 99.0251 85.0192C99.6617 85.178 100.602 85.4523 101.123 85.6183C101.636 85.7843 102.454 86.0803 102.931 86.2679C103.409 86.4556 104.19 86.7948 104.667 87.0186C105.145 87.2496 105.89 87.6394 106.331 87.892C106.765 88.1374 107.452 88.5633 107.85 88.8304C108.248 89.0974 108.834 89.5233 109.152 89.776C109.47 90.0285 110.035 90.5266 110.411 90.8875C110.787 91.2412 111.337 91.8331 111.64 92.194C111.944 92.5621 112.371 93.154 112.588 93.5148L112.986 94.1645L117.001 94.1717C116.335 92.858 115.879 92.0857 115.568 91.6093C115.25 91.1329 114.729 90.4328 114.411 90.0574C114.1 89.6821 113.485 89.0324 113.051 88.6138C112.617 88.1952 111.886 87.5744 111.431 87.228C110.975 86.8887 110.259 86.4051 109.839 86.1525C109.42 85.9071 108.718 85.5317 108.284 85.3296C107.843 85.1203 107.163 84.8316 106.765 84.6872C106.367 84.55 105.796 84.3551 105.499 84.2685L104.957 84.1025C110.092 84.0231 110.78 83.9943 111.192 83.9004C111.481 83.8282 111.973 83.6839 112.277 83.5611C112.588 83.4457 113.087 83.193 113.384 82.9981C113.68 82.8105 114.136 82.4568 114.389 82.2186C114.642 81.9876 115.033 81.5184 115.257 81.1792C115.489 80.8399 115.778 80.2986 115.901 79.9666C116.031 79.6418 116.183 79.1437 116.241 78.8694C116.299 78.5879 116.349 78.0249 116.349 77.6063C116.349 77.1877 116.299 76.6318 116.241 76.3575C116.19 76.0905 116.075 75.6935 116.002 75.4769C115.923 75.2604 115.771 74.8995 115.662 74.683C115.554 74.4664 115.308 74.0766 115.12 73.8168C114.932 73.5569 114.585 73.1671 114.346 72.9506C114.114 72.7341 113.731 72.4237 113.492 72.2721C113.254 72.1133 112.827 71.8751 112.552 71.7524C112.27 71.6225 111.771 71.442 111.431 71.3482Z" fill="white"/>
<path d="M79.2566 82.6231L71.1767 71.1825C70.2219 71.1753 69.4985 71.1825 68.9489 71.197L67.9578 71.2186C55.4944 88.9246 51.8414 94.1071 51.798 94.1576C51.7329 94.2298 52.1163 94.2514 53.8524 94.2442H55.9863C66.4099 79.4616 69.4552 75.138 69.4769 75.1091C69.4985 75.073 71.1912 77.4189 73.2384 80.3206C75.2855 83.2222 77.0287 85.698 77.1083 85.8208C77.1879 85.9434 77.2168 86.03 77.1806 86.0012C77.1372 85.9796 76.7466 85.6836 76.2981 85.3588C75.8569 85.0268 75.1046 84.5359 74.6344 84.2689C74.1642 84.009 73.4191 83.6409 72.9852 83.4533C72.5439 83.2655 71.864 83.0057 71.4661 82.8685C71.0683 82.7386 70.3015 82.5148 69.7662 82.3849C69.2309 82.2478 68.2978 82.0385 67.6902 81.9302C67.0825 81.8147 66.5763 81.7353 66.5618 81.757C66.5473 81.7786 66.0915 82.4282 65.549 83.2006C65.0065 83.9729 64.5653 84.6154 64.5797 84.6298C64.587 84.637 65.1006 84.7453 65.7154 84.8608C66.3302 84.9762 67.437 85.2216 68.1748 85.4094C68.9127 85.5897 69.9832 85.9001 70.5619 86.0878C71.1406 86.2755 72.052 86.6003 72.5873 86.8169C73.1226 87.0262 74.2438 87.5387 75.0829 87.9645C75.9148 88.3831 77.007 88.9823 77.5061 89.2999C78.0052 89.6174 78.7359 90.1155 79.1337 90.4114C79.5316 90.7074 80.1464 91.1982 80.508 91.5086C80.8625 91.8117 81.4846 92.4036 81.8897 92.8151C82.2876 93.2193 82.7433 93.7173 82.9024 93.905L83.1845 94.2514C86.8808 94.2442 87.3437 94.2226 87.3366 94.1576C87.3366 94.1071 83.6981 88.9173 79.2566 82.6231Z" fill="white"/>
</g>
<defs>
<clipPath id="clip0_131_7585">
<rect width="177" height="52" fill="white" transform="translate(45 65.333)"/>
</clipPath>
</defs>
</svg>
