<svg width="267" height="182" viewBox="0 0 267 182" fill="none" xmlns="http://www.w3.org/2000/svg">
<g clip-path="url(#clip0_131_7513)">
<path d="M148.493 89.0706C147.387 90.0323 146.003 90.1259 145.418 89.2831C144.832 88.4402 145.243 86.9783 146.35 86.0167C147.456 85.055 148.84 84.9591 149.425 85.8042C150.01 86.6494 149.599 88.109 148.493 89.0706ZM128.247 92.8898C127.886 92.6066 127.329 92.3805 126.441 92.4102C125.404 92.4467 124.331 92.9652 123.345 93.534C118.987 96.0146 113.799 101.499 111.308 105.675C110.186 107.573 110.186 108.416 110.509 108.726C110.8 109.005 111.696 108.856 112.973 108.041C116.847 105.617 123.66 98.1549 128.247 92.8898ZM105.987 92.867C105.653 92.5518 105.186 92.4444 104.3 92.4467C103.262 92.4467 102.003 92.9035 100.998 93.4449C96.5986 95.7976 90.8833 101.524 88.312 105.629C87.1415 107.495 87.1311 108.427 87.4715 108.799C87.7537 109.11 88.6399 108.854 89.9307 108.08C93.8447 105.752 101.276 98.0042 105.987 92.867ZM147.983 103.039C156.089 97.1111 163.118 89.5184 166.26 84.6621C167.968 82.0353 166.768 80.8338 164.288 82.5584C157.743 87.1154 149.61 96.8187 147.981 103.039H147.983ZM197.829 92.867C197.491 92.5518 197.024 92.4444 196.14 92.4467C195.102 92.4467 193.84 92.9035 192.84 93.4449C188.438 95.7976 182.719 101.524 180.146 105.629C178.979 107.495 178.969 108.427 179.316 108.799C179.598 109.11 180.486 108.854 181.779 108.08C185.678 105.752 193.114 98.0042 197.827 92.867H197.829ZM100.811 91.6358C104.497 90.4937 108.436 90.5691 110.914 92.3211C110.727 92.4627 110.339 92.7277 110.044 93.0063C104.993 97.5748 99.8111 103.849 98.4643 106.421C97.6217 108.02 98.1115 108.459 98.1924 108.544C99.6348 110.035 105.271 106.047 112.659 98.5364C115.106 96.0489 118.375 93.2827 122.71 91.6701C124.126 91.126 125.619 90.8668 127.118 90.9049C128.095 90.9346 129.065 91.0926 130.009 91.3754C132.433 88.8102 136.712 84.4908 139.86 81.2518C141.396 81.2518 142.512 81.2518 144.079 81.1856C143.812 81.3582 143.561 81.5578 143.328 81.7817C140.993 84.1002 136.197 88.8102 132.19 92.9744C127.28 98.0681 122.942 103.185 121.398 106.168C120.801 107.328 120.597 108.13 121.081 108.56C122.224 109.576 127.128 106.801 134.383 99.4067C137.326 95.969 140.786 92.3805 142.033 91.1561C143.515 91.1561 144.801 91.1561 146.372 91.1264C145.902 91.4548 145.455 91.8213 145.034 92.2228C141.873 95.4207 136.592 100.83 134.583 104.039C132.97 106.62 133.279 107.819 133.983 108.393C135.303 109.466 140.149 108.1 144.754 105.293C144.625 103.281 145.308 100.622 146.673 98.0247C149.008 93.5774 154.115 87.1999 162.562 81.8891C165.071 80.3153 167.212 79.7968 168.144 80.779C169.035 81.7201 168.815 83.6982 167.347 86.1217C163.178 93.0132 155.62 99.2605 147.605 104.987C147.122 108.434 151.795 111.2 161.476 105.371C161.391 103.315 162.016 100.75 163.61 98.0019C166.586 92.8761 172.129 86.5329 179.631 81.8457C182.146 80.2764 184.197 79.6826 185.213 80.7698C186.127 81.7475 185.907 83.6982 184.439 86.1217C180.509 92.6157 174.546 97.7484 164.488 105.158C164.28 106.275 164.423 107.253 164.965 107.877C166.227 109.332 169.387 107.927 170.931 107.223C175.497 105.142 176.968 102.831 182.487 98.1572C186.569 94.6989 189.372 92.7711 192.655 91.6609C194.427 91.0115 196.298 90.7621 198.159 90.9277C199.757 91.0883 201.315 91.5658 202.758 92.3371C202.457 92.5487 202.166 92.7774 201.886 93.0223C196.837 97.5907 191.666 103.758 190.317 106.394C189.852 107.308 189.733 108.105 190.109 108.514C190.908 109.4 195.6 107.829 204.024 98.8311C205.327 97.4446 206.139 96.5948 207.17 95.736C209.98 93.2896 212.952 91.5924 215.899 90.6559C219.072 89.6463 222.235 89.7422 222.631 92.3782C223.106 95.5144 219.788 98.276 216.519 99.5437L216.418 98.1732C218.841 96.3938 220.952 93.5454 219.989 92.0424C219.418 91.1493 217.779 91.2772 215.394 92.4695C212.719 93.8012 208.365 98.059 206.124 101.963C204.617 104.59 204.287 107.246 205.45 108.493C206.612 109.74 208.459 109.864 210.679 109.32C213.823 108.555 218.184 105.965 220.688 103.226L220.975 104.523C219.342 106.467 215.309 109.503 210.874 110.652C207.187 111.611 204.441 110.997 202.849 109.211C201.494 107.694 201.255 105.213 202.061 102.664C194.519 110.451 190.2 111.253 188.719 109.814C187.436 108.569 187.82 105.672 189.331 103.452C187.069 105.581 184.57 107.749 182.574 109.03C179.33 111.111 177.547 110.3 177.217 108.014C177.051 106.846 177.514 105.273 178.34 103.639C171.882 109.729 167.001 110.96 164.141 109.957C162.919 109.53 162.086 108.402 161.694 106.876C153.271 111.796 146.368 111.49 144.884 106.728C139.758 109.818 134.801 111.214 132.862 109.871C131.349 108.822 130.675 106.673 132.202 103.265C126.914 108.569 122.262 111.577 119.856 109.85C118.381 108.797 118.846 105.533 120.271 103.317C118.053 105.508 115.772 107.607 113.809 108.943C110.609 111.118 108.704 110.314 108.399 108.014C108.233 106.757 108.793 105.067 109.607 103.345C102.849 110.197 98.3647 111.339 96.858 109.711C95.6336 108.384 95.9553 105.67 97.4806 103.422C95.2185 105.551 92.7178 107.719 90.7235 109C87.4798 111.081 85.695 110.27 85.3671 107.984C85.1762 106.659 85.8029 104.816 86.8447 102.943C78.1783 110.709 67.3723 117.011 60.0942 117C51.0273 116.984 48.429 109.823 51.6956 101.239C52.8183 98.2943 54.9828 94.9959 57.7346 91.9122C49.504 91.3252 45.698 89.242 44.1602 86.0966C43.0893 83.9243 43.5583 79.9795 47.4433 76.407C53.3413 70.9797 64.5478 67.5123 73.152 66.4479C74.6672 66.2488 76.1917 66.1474 77.7176 66.1441L78.5083 67.7293C70.8899 66.9549 56.8672 70.9409 50.9069 76.8661C46.8145 80.948 47.0967 84.685 49.1243 87.0263C50.577 88.6983 53.0258 90.046 59.206 90.3567C59.8577 89.6988 60.528 89.0524 61.2211 88.4288C73.6334 77.2796 91.6677 67.6996 107.164 65.2464C110.692 64.6867 113.965 64.9151 114.635 67.6425C115.465 71.0094 112.298 76.2608 101.287 82.2934C91.7715 87.5082 76.1757 92.0424 63.1138 92.0881C60.2541 95.3568 57.9256 98.6095 56.201 101.798C52.1521 109.272 54.0261 115.41 60.4595 115.44C69.4372 115.474 81.6275 106.417 89.6713 98.6141C89.6713 98.6095 95.0089 93.4129 100.809 91.6358H100.811ZM64.6267 90.4937C78.2987 90.0232 89.966 85.5735 102.343 78.9699C110.138 74.8149 113.672 70.5183 113.161 68.1953C112.746 66.2605 110.096 66.2468 107.299 66.7242C92.834 69.198 75.8042 79.4039 67.0382 88.0199C66.1894 88.8491 65.3966 89.6737 64.6246 90.496L64.6267 90.4937ZM164.834 103.24C172.984 97.2732 180.519 89.2054 183.589 84.2647C184.979 82.0284 183.589 81.0188 181.735 82.2774C175.219 86.7019 166.586 96.7867 164.832 103.242L164.834 103.24Z" fill="white"/>
</g>
<defs>
<clipPath id="clip0_131_7513">
<rect width="179" height="52" fill="white" transform="translate(43.6665 65)"/>
</clipPath>
</defs>
</svg>
