<svg width="267" height="182" viewBox="0 0 267 182" fill="none" xmlns="http://www.w3.org/2000/svg">
<g clip-path="url(#clip0_131_7543)">
<path d="M72.2964 92.8255C72.2964 92.8255 74.9576 92.3405 75.2768 91.6172C75.2768 91.6172 71.9252 92.5303 68.5492 92.6702L71.6459 92.6909L71.9616 93.8992C71.9616 93.8992 72.6278 93.9752 73.575 94.1547V93.6368L72.4126 93.4159L72.2964 92.8255Z" fill="#B72119"/>
<path d="M81.7333 73.0742L73.1833 74.3346H70.65L67.8 77.4855L62.1 91.6645L68.75 109.94L74.1333 128.215L92.5 119.077L84.2667 103.323L86.4833 101.432L89.3333 93.8701L93.7667 80.6364L92.5 75.2798L81.7333 73.0742Z" fill="#F3E0B5"/>
<path d="M97.2206 71.7998L58.5028 74.1716L57.6666 131.332L99.9963 128.688L97.2206 71.7998ZM81.7408 73.2308C82.3185 73.7487 82.8493 75.5197 82.8493 75.5197H73.3078L81.7408 73.2308ZM67.0659 102.015L65.2998 97.551L63.1383 92.0963C63.1383 92.0963 66.025 80.2011 70.997 75.7631L84.7507 76.0566L83.2136 88.0726L81.7807 88.5593L83.2674 79.8783L72.1333 78.8323L82.4902 80.2944L80.6999 91.1124L78.7118 91.5525L79.7318 85.8958L70.742 84.18L79.2097 86.5725L77.2875 94.3144L74.111 93.7275C74.1288 93.2479 74.1728 92.7696 74.2429 92.2948L73.6166 92.64C73.5958 92.9853 73.5854 93.3046 73.5802 93.6222V94.1401C73.6582 105.617 83.3073 103.824 83.3073 103.824L83.741 104.594L73.6166 108.362V107.589L72.9903 107.761V108.587L72.7023 108.694L72.5636 107.858L72.2652 108V108.863L71.9963 108.963V106.729H71.3717V109.194L69.309 109.959L67.0659 102.015ZM69.4634 110.491L71.3717 109.769V110.259L71.998 110.087V109.539L72.2669 109.438V109.836L72.8637 109.664L72.7943 109.244L72.9938 109.168V111.131H73.627V108.921L83.9665 105.017L86.3953 109.348L84.2146 109.693L84.284 108.554L83.6473 108.695L83.5814 109.795L83.3281 109.836L83.2154 108.766L82.9083 108.89L82.8459 109.914L82.5735 109.957L82.7157 107.599L82.0895 107.561L81.9542 110.069L69.885 112.016L69.4634 110.491ZM70.0446 112.562L81.9229 110.573L81.8917 111.103L82.5284 110.962L82.5579 110.466L82.8302 110.421L82.8042 110.713L83.4114 110.572L83.3836 110.313L83.5571 110.283L83.4513 112.042L84.0776 112.08L84.1921 110.182L86.6382 109.776L89.3167 114.542L87.5819 115.438L87.2454 114.445L86.7093 114.815L87.0181 115.728L86.77 115.856L86.3346 115.041L86.0969 115.27L86.3658 116.064L86.1247 116.189L85.4307 114.147L84.8374 114.338L85.5591 116.472L76.9336 120.918L76.6491 120.079L76.113 120.449L76.3698 121.21L76.0974 121.35L75.7365 120.677L75.4989 120.906L75.7157 121.547L75.4746 121.671L74.8414 119.788L74.2481 119.986L74.9194 121.968L72.9712 122.969L70.0446 112.562ZM74.2984 127.661L73.1638 123.634L75.1328 122.598L75.3826 123.335L75.9187 122.966L75.6949 122.303L75.9361 122.177L76.0939 122.641L76.6022 122.284L76.4027 121.933L76.5762 121.842L77.1851 123.639L77.7784 123.44L77.1383 121.542L85.7447 117.038L85.9668 117.694L86.5029 117.324L86.3068 116.744L86.548 116.618L86.6781 117.002L87.1864 116.644L87.0354 116.363L87.1985 116.278L87.7797 117.994L88.373 117.791L87.7606 115.98L89.5874 115.029L91.8426 119.033L74.2984 127.661ZM92.3631 83.6967C92.3611 83.7069 92.3576 83.7168 92.3527 83.726L92.1237 84.3457L86.4994 99.5741L82.8563 103.049C74.9975 103.912 74.0555 97.5925 74.0937 94.2592C75.308 94.5112 76.8191 94.91 78.0196 95.4951C78.3457 95.6678 81.1752 97.3456 78.1757 101.551L79.8724 99.241V95.8421L77.6483 94.784L78.0872 93.9019C78.0872 93.9019 80.4292 94.3041 81.059 95.2293C81.059 95.2293 80.8057 94.021 78.2971 93.2874L78.6684 91.9461L81.059 91.6112L81.3643 90.1422C81.3643 90.1422 84.2858 91.2073 84.7507 92.4156C84.7507 92.4156 84.3326 90.8793 81.5916 89.457L81.6384 88.9477L83.689 88.5593L84.7576 79.8317L85.5955 80.246C86.0755 80.2634 86.5561 80.2467 87.0337 80.196C89.8094 81.375 91.4436 80.2201 91.4436 80.2201C90.3698 80.8709 88.7495 80.4325 87.8005 80.0717C90.2084 79.5417 90.5242 78.0296 90.5242 78.0296C89.0843 80.757 84.7628 79.2776 84.7628 79.2776L85.3197 75.5197H83.4114C83.3646 74.5375 83.6907 74.1716 83.6907 74.1716L91.8825 75.5197C93.3277 78.0503 92.4238 83.4015 92.3631 83.6967Z" fill="#B72119"/>
<path d="M76.9423 67.0983C76.9423 67.0983 82.4538 68.2169 82.858 74.1757L83.9839 73.1711C83.9839 73.1711 83.6682 67.6628 77.9936 66.3682L76.9423 67.0983Z" fill="#B72119"/>
<path d="M66.091 66.1094C64.4314 66.8447 62.9155 67.8662 61.6134 69.1267C70.3396 74.849 74.9282 69.8656 76.1477 68.1704C74.0521 68.8644 69.9839 69.5082 66.091 66.1094Z" fill="#B72119"/>
<path d="M71.1237 64.6125C69.9469 63.4443 69.0688 62.0124 68.5631 60.4368C66.7195 60.1693 64.8421 60.243 63.0255 60.6543C64.0265 62.7689 65.1264 64.3 66.2679 65.3979C67.8125 64.7976 69.4675 64.5299 71.1237 64.6125Z" fill="#B72119"/>
<path d="M75.8944 67.1793C74.7483 66.2807 73.4098 65.6564 71.9824 65.3547C70.0915 64.9732 68.2994 65.2753 66.7537 65.8432C70.6084 69.1489 74.654 67.7317 75.8823 67.1828H75.8944V67.1793Z" fill="#B72119"/>
<path d="M73.627 56.7812C72.1647 55.6375 70.5018 54.7736 68.7227 54.2334C68.5388 56.512 68.7227 58.3555 69.1408 59.8504C70.7594 60.1714 72.2895 60.8355 73.627 61.7975C73.2067 60.1516 73.2067 58.4272 73.627 56.7812Z" fill="#B72119"/>
<path d="M75.858 65.9023C75.437 64.9105 74.8472 63.9983 74.1145 63.206C72.7354 61.7353 71.0248 60.9654 69.375 60.5908C70.1244 62.6761 71.3596 63.9897 72.6191 64.8165C73.6033 65.4531 74.7049 65.8885 75.8598 66.0973L75.9482 66.1129L75.858 65.9023Z" fill="#B72119"/>
<path d="M77.3759 60.7407C77.8511 59.0871 78.7426 57.5815 79.966 56.3666C79.3617 54.5255 78.4083 52.8168 77.1574 51.333C75.6689 53.256 74.7859 54.9977 74.3209 56.5513C75.6498 57.6951 76.6953 59.1288 77.3759 60.7407Z" fill="#B72119"/>
<path d="M77.088 62.2216C76.6733 60.0691 75.4954 58.4395 74.1474 57.2295C73.6443 59.4839 74.0347 61.3171 74.7026 62.7257C75.1873 63.7278 75.855 64.6315 76.6716 65.3909C76.8225 65.5324 76.963 65.6533 77.0827 65.7517C77.1198 65.5422 77.1498 65.3362 77.173 65.1337C77.2959 64.1645 77.2672 63.1821 77.088 62.2216Z" fill="#B72119"/>
<path d="M78.8314 66.0795C87.7172 63.7474 85.8193 53.5957 85.8193 53.5957C83.5311 54.4726 81.8743 55.5118 80.6859 56.6113C81.4198 59.4457 81.333 62.8239 78.8314 66.0795Z" fill="#B72119"/>
<path d="M80.176 57.1162C78.7938 58.5351 77.9795 60.4072 77.886 62.3811C77.8522 63.2024 77.9333 64.0245 78.1272 64.8236C78.1688 64.9962 78.2139 65.1585 78.2573 65.3018C80.6166 62.5105 80.7762 59.5726 80.176 57.1162Z" fill="#B72119"/>
<path d="M107.907 79.9873C107.907 78.2767 108.271 73.6885 114.447 73.6885C119.999 73.6885 120.856 77.3963 120.96 79.3849C120.974 79.5555 120.923 79.725 120.817 79.8597C120.71 79.9944 120.557 80.0844 120.387 80.1116L117.495 80.7589C116.949 80.8625 116.531 80.5 116.455 79.9545C116.324 78.8135 115.856 78.1403 114.449 78.1403C112.522 78.1403 112.39 79.359 112.39 81.3545V85.0882C112.39 87.0837 112.52 88.3024 114.449 88.3024C115.882 88.3024 116.272 87.6291 116.429 86.4363C116.507 85.8926 116.923 85.5543 117.445 85.6837L120.394 86.3311C120.568 86.3608 120.723 86.4548 120.829 86.5942C120.936 86.7336 120.985 86.9079 120.967 87.0819C120.863 89.0515 120.002 92.7594 114.454 92.7594C108.28 92.7594 107.914 88.1712 107.914 86.4605L107.907 79.9873Z" fill="#F3E0B5"/>
<path d="M126.157 74.1511C126.678 74.1511 126.938 74.4106 126.938 74.9296V87.0647C126.938 87.5567 127.224 87.8432 127.719 87.8432H133.53C134.051 87.8432 134.311 88.1022 134.311 88.62V91.5234C134.311 92.0413 134.051 92.3002 133.53 92.3002H123.243C122.749 92.3002 122.461 92.0154 122.461 91.5234V74.9279C122.461 74.4101 122.747 74.1494 123.243 74.1494L126.157 74.1511Z" fill="#F3E0B5"/>
<path d="M148.63 86.464C148.63 88.1746 148.266 92.7628 142.092 92.7628C135.918 92.7628 135.56 88.1746 135.56 86.464V79.9873C135.56 78.2767 135.924 73.6885 142.1 73.6885C148.276 73.6885 148.639 78.2767 148.639 79.9873L148.63 86.464ZM144.149 81.3579C144.149 79.3624 144.019 78.1438 142.092 78.1438C140.164 78.1438 140.033 79.3624 140.033 81.3579V85.0917C140.033 87.0871 140.163 88.3058 142.092 88.3058C144.021 88.3058 144.149 87.0871 144.149 85.0917V81.3579Z" fill="#F3E0B5"/>
<path d="M163.335 86.464C163.335 88.1746 162.97 92.7628 156.796 92.7628C150.622 92.7628 150.258 88.1746 150.258 86.464V79.9873C150.258 78.2767 150.622 73.6885 156.796 73.6885C162.97 73.6885 163.335 78.2732 163.335 79.9873V86.464ZM158.854 81.3579C158.854 79.3624 158.724 78.1438 156.796 78.1438C154.869 78.1438 154.739 79.3624 154.739 81.3579V85.0917C154.739 87.0871 154.869 88.3058 156.796 88.3058C158.724 88.3058 158.854 87.0871 158.854 85.0917V81.3579Z" fill="#F3E0B5"/>
<path d="M169.78 74.1516C169.976 74.1378 170.172 74.1886 170.337 74.2962C170.502 74.4038 170.627 74.5622 170.692 74.7472L174.235 83.3781C174.339 83.6111 174.547 83.5593 174.547 83.3004V74.9284C174.547 74.4106 174.833 74.1499 175.328 74.1499H178.237C178.758 74.1499 179.019 74.4094 179.018 74.9284V91.5188C179.018 92.0107 178.757 92.2956 178.237 92.2956H174.42C174.224 92.3097 174.028 92.259 173.863 92.1514C173.698 92.0438 173.573 91.8852 173.508 91.7L169.965 83.0691C169.861 82.8361 169.653 82.8879 169.653 83.1468V91.5205C169.653 92.0125 169.393 92.2973 168.871 92.2973H165.949C165.455 92.2973 165.168 92.0125 165.168 91.5205V74.9284C165.168 74.4106 165.455 74.1499 165.949 74.1499L169.78 74.1516Z" fill="#F3E0B5"/>
<path d="M192.832 74.1511C193.352 74.1511 193.613 74.4106 193.613 74.9296V77.8331C193.613 78.3251 193.352 78.6116 192.832 78.6116H186.527C186.033 78.6116 185.747 78.8705 185.747 79.3884V80.2187C185.747 80.7106 186.033 80.9972 186.527 80.9972H190.566C191.088 80.9972 191.349 81.2561 191.349 81.774V84.6774C191.349 85.1694 191.088 85.4542 190.566 85.4542H186.527C186.033 85.4542 185.747 85.7131 185.747 86.231V87.0647C185.747 87.5567 186.033 87.8432 186.527 87.8432H192.832C193.352 87.8432 193.613 88.1022 193.613 88.62V91.5234C193.613 92.0413 193.352 92.3002 192.832 92.3002H181.89C181.396 92.3002 181.108 92.0154 181.108 91.5234V74.9279C181.108 74.4101 181.394 74.1494 181.89 74.1494L192.832 74.1511Z" fill="#F3E0B5"/>
<path d="M199.249 74.1517C199.443 74.1346 199.637 74.1845 199.798 74.293C199.96 74.4014 200.079 74.5618 200.135 74.7473L202.063 79.5685C202.167 79.8015 202.323 79.8015 202.427 79.5685L204.354 74.7473C204.411 74.5618 204.53 74.4014 204.692 74.293C204.853 74.1845 205.047 74.1346 205.241 74.1517H208.966C209.566 74.1517 209.833 74.5142 209.566 75.0597L204.903 85.4289C204.86 85.5268 204.843 85.6334 204.851 85.7396V91.5206C204.851 92.0126 204.59 92.2974 204.068 92.2974H200.425C199.931 92.2974 199.644 92.0126 199.644 91.5206V85.7396C199.653 85.6334 199.635 85.5268 199.592 85.4289L194.908 75.0597C194.648 74.5159 194.908 74.1517 195.507 74.1517H199.249Z" fill="#F3E0B5"/>
<path d="M116.368 97.9522C116.74 97.9522 116.926 98.1375 116.926 98.508V100.579C116.936 100.655 116.928 100.731 116.903 100.803C116.878 100.874 116.837 100.939 116.783 100.993C116.73 101.046 116.664 101.087 116.592 101.112C116.52 101.136 116.443 101.144 116.368 101.135H111.672C111.596 101.126 111.519 101.134 111.447 101.159C111.375 101.183 111.31 101.224 111.256 101.278C111.202 101.331 111.161 101.396 111.137 101.468C111.112 101.54 111.104 101.616 111.113 101.691V102.285C111.105 102.36 111.115 102.435 111.14 102.506C111.166 102.577 111.206 102.641 111.26 102.695C111.313 102.748 111.378 102.789 111.449 102.814C111.52 102.839 111.596 102.848 111.672 102.841H114.742C115.115 102.841 115.301 103.026 115.301 103.397V105.468C115.312 105.544 115.306 105.622 115.282 105.695C115.258 105.768 115.217 105.835 115.163 105.89C115.109 105.945 115.043 105.987 114.97 106.012C114.897 106.037 114.819 106.046 114.742 106.036H111.672C111.596 106.027 111.519 106.035 111.447 106.059C111.375 106.084 111.31 106.125 111.256 106.178C111.202 106.232 111.161 106.297 111.137 106.369C111.112 106.44 111.104 106.517 111.113 106.592V110.369C111.122 110.444 111.114 110.52 111.089 110.592C111.065 110.663 111.024 110.728 110.97 110.782C110.916 110.836 110.851 110.876 110.779 110.901C110.707 110.926 110.63 110.934 110.554 110.924H108.356C108.282 110.931 108.206 110.921 108.136 110.896C108.065 110.87 108.001 110.829 107.948 110.776C107.895 110.723 107.855 110.659 107.83 110.589C107.805 110.518 107.796 110.443 107.803 110.369V98.5097C107.794 98.4345 107.802 98.3582 107.827 98.2866C107.851 98.215 107.892 98.1499 107.946 98.0963C108 98.0427 108.065 98.0021 108.137 97.9774C108.209 97.9527 108.286 97.9447 108.362 97.9539L116.368 97.9522Z" fill="#F3E0B5"/>
<path d="M127.148 106.759C127.148 107.983 126.888 111.265 122.464 111.265C118.04 111.265 117.78 107.985 117.78 106.759V102.124C117.78 100.901 118.04 97.6191 122.464 97.6191C126.888 97.6191 127.148 100.899 127.148 102.124V106.759ZM123.937 103.107C123.937 101.679 123.843 100.807 122.466 100.807C121.088 100.807 120.995 101.67 120.995 103.107V105.775C120.995 107.203 121.088 108.075 122.466 108.075C123.843 108.075 123.937 107.212 123.937 105.775V103.107Z" fill="#F3E0B5"/>
<path d="M131.015 97.9522C131.387 97.9522 131.574 98.1375 131.574 98.508V105.775C131.574 107.203 131.667 108.075 133.045 108.075C134.422 108.075 134.516 107.211 134.516 105.775V98.5097C134.507 98.4345 134.515 98.3582 134.54 98.2866C134.564 98.215 134.605 98.1499 134.659 98.0963C134.713 98.0427 134.778 98.0021 134.85 97.9774C134.922 97.9527 134.999 97.9447 135.075 97.9539H137.156C137.529 97.9539 137.715 98.1392 137.715 98.5097V106.759C137.715 107.983 137.455 111.264 133.031 111.264C128.607 111.264 128.347 107.985 128.347 106.759V98.5097C128.338 98.4345 128.346 98.3582 128.37 98.2866C128.395 98.215 128.436 98.1499 128.49 98.0963C128.544 98.0427 128.609 98.0021 128.681 97.9774C128.753 97.9527 128.83 97.9447 128.905 97.9539L131.015 97.9522Z" fill="#F3E0B5"/>
<path d="M142.421 97.9522C142.562 97.9423 142.702 97.9787 142.82 98.0558C142.938 98.1328 143.027 98.2462 143.074 98.3785L145.607 104.551C145.681 104.724 145.83 104.681 145.83 104.496V98.5097C145.821 98.4345 145.829 98.3582 145.854 98.2866C145.879 98.215 145.92 98.1499 145.973 98.0963C146.027 98.0427 146.093 98.0021 146.165 97.9774C146.237 97.9527 146.313 97.9447 146.389 97.9539H148.471C148.843 97.9539 149.029 98.1392 149.029 98.5097V110.369C149.039 110.444 149.031 110.52 149.006 110.592C148.981 110.663 148.94 110.728 148.886 110.782C148.832 110.836 148.767 110.876 148.695 110.901C148.623 110.926 148.546 110.934 148.471 110.924H145.737C145.596 110.934 145.456 110.898 145.338 110.821C145.22 110.744 145.131 110.63 145.084 110.498L142.552 104.327C142.477 104.154 142.328 104.198 142.328 104.382V110.369C142.337 110.444 142.329 110.52 142.304 110.592C142.279 110.663 142.238 110.728 142.185 110.782C142.131 110.836 142.065 110.876 141.993 110.901C141.921 110.926 141.845 110.934 141.769 110.924H139.687C139.612 110.932 139.536 110.923 139.465 110.898C139.394 110.872 139.329 110.832 139.276 110.778C139.222 110.725 139.181 110.661 139.156 110.59C139.13 110.519 139.121 110.443 139.129 110.369V98.5097C139.119 98.4345 139.128 98.3582 139.152 98.2866C139.177 98.215 139.218 98.1499 139.272 98.0963C139.326 98.0427 139.391 98.0021 139.463 97.9774C139.535 97.9527 139.612 97.9447 139.687 97.9539L142.421 97.9522Z" fill="#F3E0B5"/>
<path d="M155.237 97.9521C158.739 97.9521 159.895 99.3607 159.895 102.401V106.461C159.895 109.5 158.739 110.928 155.237 110.928H151.073C150.998 110.935 150.922 110.926 150.851 110.901C150.779 110.876 150.715 110.835 150.661 110.782C150.608 110.729 150.567 110.664 150.541 110.593C150.516 110.522 150.507 110.447 150.514 110.372V98.527C150.514 98.1558 150.7 97.9711 151.073 97.9521H155.237ZM155.292 107.74C156.187 107.74 156.633 107.591 156.633 106.479V102.402C156.633 101.253 156.186 101.142 155.292 101.142H154.286C154.21 101.133 154.134 101.141 154.062 101.166C153.99 101.19 153.924 101.231 153.87 101.285C153.817 101.338 153.776 101.403 153.751 101.475C153.726 101.546 153.718 101.623 153.727 101.698V107.186C153.72 107.26 153.729 107.336 153.754 107.407C153.78 107.478 153.821 107.542 153.874 107.595C153.928 107.648 153.992 107.689 154.063 107.714C154.135 107.74 154.211 107.749 154.286 107.741L155.292 107.74Z" fill="#F3E0B5"/>
<path d="M170.257 110.3C170.257 110.707 170.071 110.93 169.698 110.93H167.616C167.541 110.939 167.464 110.931 167.392 110.906C167.32 110.882 167.255 110.841 167.201 110.787C167.147 110.734 167.106 110.669 167.081 110.597C167.057 110.525 167.048 110.449 167.058 110.374V108.762C167.058 108.391 166.872 108.206 166.499 108.206H164.898C164.822 108.197 164.746 108.205 164.674 108.229C164.602 108.254 164.536 108.295 164.482 108.348C164.429 108.402 164.388 108.467 164.363 108.539C164.338 108.61 164.33 108.686 164.339 108.762V110.369C164.339 110.739 164.153 110.925 163.781 110.925H161.699C161.352 110.925 161.14 110.702 161.14 110.295V102.439C161.14 100.103 161.513 97.6191 165.705 97.6191C169.896 97.6191 170.257 100.103 170.257 102.439V110.3ZM167.053 102.44C167.053 101.55 166.922 101.106 165.692 101.106C164.462 101.106 164.332 101.551 164.332 102.44V104.462C164.325 104.537 164.334 104.612 164.359 104.683C164.385 104.754 164.426 104.818 164.479 104.871C164.533 104.925 164.597 104.965 164.669 104.991C164.74 105.016 164.816 105.025 164.891 105.018H166.492C166.865 104.999 167.051 104.814 167.051 104.443L167.053 102.44Z" fill="#F3E0B5"/>
<path d="M174.892 101.698C174.892 101.327 174.706 101.142 174.334 101.142H171.731C171.656 101.149 171.58 101.14 171.509 101.115C171.438 101.09 171.373 101.049 171.32 100.996C171.266 100.943 171.225 100.878 171.2 100.807C171.174 100.736 171.165 100.661 171.173 100.586V98.5146C171.164 98.4394 171.172 98.3631 171.196 98.2915C171.221 98.2198 171.262 98.1548 171.316 98.1012C171.37 98.0476 171.435 98.007 171.507 97.9823C171.579 97.9576 171.656 97.9496 171.731 97.9588H181.273C181.645 97.9588 181.832 98.1441 181.832 98.5146V100.586C181.841 100.661 181.833 100.738 181.808 100.809C181.783 100.881 181.742 100.946 181.688 100.999C181.635 101.053 181.569 101.094 181.497 101.118C181.425 101.143 181.348 101.151 181.273 101.142H178.671C178.595 101.133 178.518 101.141 178.446 101.165C178.374 101.19 178.309 101.231 178.255 101.284C178.201 101.338 178.16 101.403 178.136 101.475C178.111 101.546 178.103 101.622 178.112 101.698V110.368C178.121 110.444 178.113 110.52 178.088 110.591C178.064 110.663 178.023 110.728 177.969 110.782C177.915 110.835 177.85 110.876 177.778 110.901C177.706 110.925 177.629 110.933 177.553 110.924H175.472C175.396 110.932 175.32 110.922 175.249 110.897C175.178 110.872 175.113 110.831 175.06 110.778C175.006 110.725 174.966 110.661 174.94 110.59C174.915 110.519 174.905 110.443 174.913 110.368L174.892 101.698Z" fill="#F3E0B5"/>
<path d="M185.436 97.9522C185.809 97.9522 185.995 98.1375 185.995 98.508V110.369C186.004 110.444 185.996 110.52 185.971 110.592C185.947 110.663 185.906 110.728 185.852 110.782C185.798 110.836 185.733 110.876 185.661 110.901C185.589 110.926 185.512 110.934 185.436 110.924H183.388C183.312 110.932 183.236 110.923 183.165 110.898C183.094 110.872 183.029 110.832 182.976 110.778C182.922 110.725 182.881 110.661 182.856 110.59C182.831 110.519 182.821 110.443 182.829 110.369V98.5097C182.82 98.4345 182.828 98.3582 182.853 98.2866C182.877 98.215 182.918 98.1499 182.972 98.0963C183.026 98.0427 183.091 98.0021 183.163 97.9774C183.235 97.9527 183.312 97.9447 183.388 97.9539L185.436 97.9522Z" fill="#F3E0B5"/>
<path d="M196.64 106.759C196.64 107.983 196.38 111.265 191.956 111.265C187.532 111.265 187.272 107.985 187.272 106.759V102.124C187.272 100.901 187.532 97.6191 191.956 97.6191C196.38 97.6191 196.64 100.899 196.64 102.124V106.759ZM193.436 103.107C193.436 101.679 193.342 100.807 191.965 100.807C190.587 100.807 190.493 101.67 190.493 103.107V105.775C190.493 107.203 190.587 108.075 191.965 108.075C193.342 108.075 193.436 107.212 193.436 105.775V103.107Z" fill="#F3E0B5"/>
<path d="M201.249 97.9522C201.39 97.9423 201.53 97.9787 201.648 98.0558C201.766 98.1328 201.855 98.2462 201.901 98.3785L204.433 104.553C204.507 104.726 204.656 104.683 204.656 104.498V98.5097C204.647 98.4345 204.655 98.3582 204.68 98.2866C204.705 98.215 204.746 98.1499 204.799 98.0963C204.853 98.0427 204.919 98.0021 204.991 97.9774C205.063 97.9527 205.139 97.9447 205.215 97.9539H207.297C207.669 97.9539 207.855 98.1392 207.855 98.5097V110.369C207.865 110.444 207.857 110.52 207.832 110.592C207.807 110.663 207.766 110.728 207.712 110.782C207.658 110.836 207.593 110.876 207.521 110.901C207.449 110.926 207.372 110.934 207.297 110.924H204.564C204.424 110.934 204.284 110.898 204.166 110.821C204.048 110.744 203.959 110.63 203.912 110.498L201.379 104.327C201.305 104.154 201.155 104.198 201.155 104.382V110.369C201.165 110.444 201.157 110.52 201.132 110.592C201.107 110.663 201.066 110.728 201.012 110.782C200.959 110.836 200.893 110.876 200.821 110.901C200.749 110.926 200.672 110.934 200.597 110.924H198.515C198.44 110.932 198.364 110.923 198.293 110.898C198.221 110.872 198.157 110.832 198.103 110.778C198.05 110.725 198.009 110.661 197.984 110.59C197.958 110.519 197.949 110.443 197.956 110.369V98.5097C197.947 98.4345 197.955 98.3582 197.98 98.2866C198.005 98.215 198.046 98.1499 198.1 98.0963C198.153 98.0427 198.219 98.0021 198.291 97.9774C198.363 97.9527 198.44 97.9447 198.515 97.9539L201.249 97.9522Z" fill="#F3E0B5"/>
<path d="M115.979 117.116C116.337 117.116 116.515 117.294 116.515 117.649V119.641C116.524 119.714 116.517 119.787 116.493 119.856C116.469 119.924 116.43 119.987 116.378 120.038C116.327 120.09 116.264 120.129 116.195 120.152C116.125 120.176 116.052 120.184 115.979 120.175H111.469C111.396 120.165 111.321 120.171 111.251 120.195C111.181 120.218 111.117 120.256 111.065 120.308C111.012 120.36 110.972 120.423 110.948 120.492C110.924 120.561 110.916 120.635 110.926 120.708V121.278C110.918 121.35 110.927 121.422 110.952 121.49C110.976 121.558 111.015 121.62 111.066 121.671C111.118 121.722 111.18 121.761 111.248 121.785C111.317 121.81 111.39 121.818 111.462 121.811H114.411C114.768 121.811 114.947 121.989 114.947 122.345V124.333C114.956 124.405 114.948 124.479 114.925 124.547C114.901 124.616 114.862 124.679 114.81 124.73C114.758 124.782 114.695 124.821 114.626 124.844C114.557 124.868 114.483 124.875 114.411 124.867H111.462C111.389 124.858 111.316 124.865 111.246 124.889C111.177 124.912 111.114 124.951 111.063 125.003C111.011 125.054 110.972 125.117 110.948 125.186C110.924 125.254 110.917 125.328 110.926 125.4V129.025C110.935 129.097 110.927 129.17 110.903 129.239C110.88 129.308 110.84 129.37 110.789 129.422C110.737 129.473 110.674 129.512 110.605 129.536C110.536 129.56 110.462 129.567 110.39 129.558H108.296C108.223 129.566 108.151 129.557 108.082 129.533C108.014 129.508 107.952 129.469 107.9 129.418C107.849 129.367 107.81 129.305 107.786 129.237C107.761 129.169 107.752 129.097 107.76 129.025V117.649C107.751 117.577 107.758 117.504 107.782 117.435C107.806 117.366 107.845 117.304 107.897 117.252C107.948 117.201 108.011 117.162 108.08 117.138C108.15 117.115 108.223 117.107 108.296 117.116H115.979Z" fill="#B72119"/>
<path d="M126.319 125.558C126.319 126.732 126.069 129.874 121.834 129.874C117.6 129.874 117.345 126.734 117.345 125.558V121.115C117.345 119.941 117.594 116.8 121.829 116.8C126.064 116.8 126.314 119.947 126.314 121.115L126.319 125.558ZM123.243 122.058C123.243 120.689 123.155 119.853 121.831 119.853C120.507 119.853 120.419 120.689 120.419 122.058V124.618C120.419 125.987 120.507 126.822 121.831 126.822C123.155 126.822 123.243 125.987 123.243 124.618V122.058Z" fill="#B72119"/>
<path d="M136.993 128.601C137.055 128.7 137.088 128.814 137.088 128.93C137.088 129.047 137.056 129.162 136.995 129.261C136.934 129.36 136.846 129.441 136.742 129.494C136.637 129.547 136.52 129.57 136.403 129.56H134.367C134.281 129.564 134.197 129.542 134.123 129.498C134.05 129.453 133.992 129.389 133.956 129.312L132.091 125.732C132.076 125.707 132.055 125.686 132.03 125.67C132.005 125.655 131.977 125.646 131.948 125.644H131.241C131.17 125.641 131.1 125.652 131.033 125.677C130.967 125.702 130.907 125.739 130.855 125.788C130.804 125.836 130.762 125.894 130.734 125.958C130.705 126.022 130.689 126.091 130.687 126.161C130.687 126.174 130.687 126.187 130.687 126.199V129.011C130.69 129.082 130.678 129.152 130.653 129.217C130.629 129.283 130.591 129.344 130.542 129.395C130.494 129.446 130.436 129.487 130.371 129.516C130.307 129.545 130.237 129.56 130.167 129.562H128.13C128.06 129.564 127.99 129.552 127.924 129.527C127.858 129.502 127.798 129.465 127.747 129.417C127.696 129.369 127.655 129.311 127.626 129.247C127.598 129.183 127.582 129.114 127.58 129.044C127.58 129.033 127.58 129.021 127.58 129.01V117.667C127.578 117.597 127.589 117.527 127.614 117.461C127.639 117.395 127.676 117.335 127.725 117.283C127.773 117.232 127.831 117.191 127.896 117.162C127.96 117.134 128.03 117.118 128.101 117.116H132.052C135.232 117.116 136.52 118.468 136.52 121.383C136.52 123.037 136.108 124.192 135.161 124.869C135.127 124.895 135.103 124.933 135.093 124.975C135.083 125.017 135.088 125.061 135.107 125.1L136.993 128.601ZM131.241 120.173C131.17 120.171 131.099 120.182 131.033 120.206C130.967 120.231 130.906 120.268 130.854 120.317C130.802 120.365 130.761 120.423 130.732 120.487C130.703 120.551 130.687 120.621 130.685 120.691C130.685 120.705 130.685 120.719 130.685 120.733V122.048C130.683 122.118 130.694 122.188 130.719 122.254C130.744 122.32 130.782 122.38 130.83 122.431C130.879 122.483 130.937 122.524 131.001 122.552C131.066 122.581 131.135 122.597 131.206 122.599H132.155C133.012 122.599 133.442 122.492 133.442 121.39C133.442 120.289 133.014 120.182 132.155 120.182L131.241 120.173Z" fill="#B72119"/>
<path d="M151.217 117.117C151.287 117.114 151.358 117.125 151.424 117.15C151.49 117.175 151.551 117.212 151.602 117.261C151.654 117.309 151.695 117.367 151.724 117.431C151.753 117.495 151.768 117.564 151.77 117.634C151.77 117.647 151.77 117.66 151.77 117.672V125.559C151.77 126.733 151.52 129.875 147.286 129.875C143.48 129.875 142.89 127.332 142.819 125.963C142.809 125.846 142.845 125.73 142.918 125.638C142.991 125.546 143.096 125.484 143.212 125.466L145.195 125.021C145.279 125.004 145.366 125.006 145.449 125.025C145.533 125.045 145.611 125.082 145.679 125.134C145.747 125.186 145.802 125.252 145.842 125.328C145.882 125.403 145.905 125.486 145.91 125.571C145.999 126.353 146.321 126.816 147.286 126.816C148.608 126.816 148.698 125.981 148.698 124.612V117.667C148.695 117.597 148.707 117.527 148.732 117.461C148.757 117.395 148.794 117.335 148.843 117.284C148.891 117.233 148.949 117.191 149.014 117.163C149.078 117.134 149.148 117.118 149.218 117.117H151.222H151.217Z" fill="#F3E0B5"/>
<path d="M155.589 117.116C155.946 117.116 156.125 117.294 156.125 117.649V124.618C156.125 125.987 156.215 126.822 157.537 126.822C158.859 126.822 158.949 125.987 158.949 124.618V117.649C158.94 117.577 158.948 117.504 158.972 117.435C158.995 117.366 159.035 117.304 159.086 117.252C159.138 117.201 159.201 117.162 159.27 117.138C159.339 117.115 159.413 117.107 159.485 117.116H161.487C161.845 117.116 162.023 117.294 162.023 117.649V125.559C162.023 126.733 161.773 129.874 157.539 129.874C153.304 129.874 153.054 126.727 153.054 125.559V117.649C153.045 117.577 153.053 117.504 153.077 117.435C153.1 117.366 153.14 117.304 153.191 117.252C153.243 117.201 153.306 117.162 153.375 117.138C153.444 117.115 153.518 117.107 153.59 117.116H155.589Z" fill="#F3E0B5"/>
<path d="M169.792 121.525C169.434 121.595 169.256 121.437 169.202 121.079C169.077 120.351 168.487 119.888 167.64 119.888C166.946 119.888 166.515 120.297 166.586 120.706C166.835 122.087 172.484 122.058 172.484 126.147C172.484 126.681 171.877 129.827 167.642 129.827C163.89 129.827 163.087 127.375 162.996 125.987C162.987 125.919 162.991 125.851 163.008 125.785C163.025 125.719 163.055 125.657 163.096 125.602C163.138 125.548 163.189 125.502 163.248 125.468C163.307 125.433 163.373 125.411 163.44 125.402H163.461L165.481 124.956C165.838 124.885 166.034 125.046 166.07 125.419C166.142 126.272 166.802 126.77 167.642 126.77C168.51 126.77 169.16 126.253 169.054 125.774C168.707 124.264 163.329 124.601 163.329 120.511C163.312 119.978 163.633 116.831 167.635 116.831C171.316 116.831 172.173 119.213 172.281 120.494C172.291 120.561 172.287 120.63 172.27 120.696C172.252 120.762 172.222 120.824 172.181 120.878C172.14 120.933 172.088 120.978 172.029 121.013C171.97 121.047 171.905 121.07 171.837 121.079H171.818L169.792 121.525Z" fill="#F3E0B5"/>
<path d="M176.655 120.706C176.655 120.351 176.476 120.173 176.119 120.173H173.617C173.545 120.18 173.472 120.172 173.404 120.147C173.335 120.123 173.273 120.084 173.222 120.033C173.171 119.982 173.131 119.92 173.107 119.852C173.083 119.784 173.074 119.711 173.081 119.64V117.649C173.072 117.577 173.08 117.504 173.103 117.435C173.127 117.366 173.166 117.304 173.218 117.252C173.27 117.201 173.333 117.162 173.402 117.138C173.471 117.115 173.545 117.107 173.617 117.116H182.765C183.122 117.116 183.301 117.294 183.301 117.649V119.641C183.31 119.714 183.302 119.787 183.278 119.856C183.255 119.924 183.215 119.987 183.164 120.038C183.112 120.09 183.049 120.129 182.98 120.152C182.911 120.176 182.837 120.184 182.765 120.175H180.263C180.191 120.166 180.117 120.173 180.048 120.197C179.979 120.221 179.916 120.26 179.864 120.311C179.813 120.363 179.773 120.425 179.75 120.494C179.726 120.563 179.718 120.636 179.727 120.708V129.028C179.736 129.101 179.728 129.174 179.705 129.243C179.681 129.311 179.642 129.374 179.59 129.425C179.538 129.477 179.476 129.516 179.406 129.539C179.337 129.563 179.264 129.571 179.191 129.562H177.196C177.124 129.569 177.051 129.56 176.983 129.536C176.914 129.512 176.852 129.473 176.801 129.422C176.749 129.371 176.71 129.309 176.686 129.241C176.662 129.173 176.653 129.1 176.66 129.028L176.655 120.706Z" fill="#F3E0B5"/>
<path d="M186.767 117.116C187.124 117.116 187.303 117.294 187.303 117.649V129.028C187.312 129.101 187.305 129.174 187.281 129.243C187.257 129.311 187.218 129.374 187.166 129.425C187.114 129.477 187.052 129.516 186.982 129.539C186.913 129.563 186.84 129.571 186.767 129.562H184.802C184.729 129.569 184.656 129.56 184.588 129.536C184.52 129.512 184.458 129.473 184.406 129.422C184.355 129.371 184.316 129.309 184.291 129.241C184.267 129.173 184.258 129.1 184.265 129.028V117.649C184.256 117.577 184.264 117.504 184.288 117.435C184.312 117.366 184.351 117.304 184.403 117.252C184.454 117.201 184.517 117.162 184.586 117.138C184.655 117.115 184.729 117.107 184.802 117.116H186.767Z" fill="#F3E0B5"/>
<path d="M188.542 121.115C188.542 119.941 188.791 116.8 193.026 116.8C196.832 116.8 197.422 119.342 197.493 120.711C197.503 120.828 197.467 120.944 197.394 121.037C197.321 121.129 197.216 121.19 197.1 121.208L195.117 121.654C195.033 121.671 194.946 121.669 194.862 121.65C194.779 121.63 194.701 121.593 194.633 121.541C194.565 121.488 194.51 121.422 194.47 121.347C194.43 121.271 194.407 121.188 194.402 121.103C194.313 120.321 193.991 119.859 193.026 119.859C191.704 119.859 191.614 120.694 191.614 122.063V124.623C191.614 125.992 191.702 126.827 193.026 126.827C194.008 126.827 194.277 126.365 194.385 125.546C194.438 125.174 194.732 124.942 195.078 125.029L197.098 125.474C197.217 125.494 197.325 125.559 197.398 125.655C197.471 125.751 197.505 125.872 197.492 125.992C197.42 127.343 196.831 129.886 193.024 129.886C188.79 129.886 188.54 126.739 188.54 125.571L188.542 121.115Z" fill="#F3E0B5"/>
<path d="M206.563 117.116C206.92 117.116 207.099 117.294 207.099 117.649V119.641C207.108 119.714 207.1 119.787 207.077 119.856C207.053 119.924 207.014 119.987 206.962 120.038C206.91 120.09 206.848 120.129 206.778 120.152C206.709 120.176 206.636 120.184 206.563 120.175H202.238C202.166 120.166 202.092 120.173 202.023 120.197C201.954 120.221 201.891 120.26 201.839 120.311C201.787 120.363 201.748 120.425 201.725 120.494C201.701 120.563 201.693 120.636 201.702 120.708V121.278C201.695 121.35 201.704 121.422 201.728 121.49C201.752 121.558 201.792 121.62 201.843 121.671C201.894 121.722 201.956 121.761 202.025 121.785C202.093 121.81 202.166 121.818 202.238 121.811H205.014C205.371 121.811 205.55 121.989 205.55 122.345V124.333C205.559 124.405 205.551 124.479 205.527 124.547C205.504 124.616 205.465 124.679 205.413 124.73C205.361 124.782 205.298 124.821 205.229 124.844C205.16 124.868 205.086 124.875 205.014 124.867H202.238C202.166 124.858 202.092 124.865 202.023 124.889C201.954 124.912 201.891 124.951 201.839 125.003C201.787 125.054 201.748 125.117 201.725 125.186C201.701 125.254 201.693 125.328 201.702 125.4V125.97C201.695 126.041 201.704 126.114 201.728 126.182C201.752 126.25 201.792 126.312 201.843 126.363C201.894 126.414 201.956 126.453 202.025 126.477C202.093 126.501 202.166 126.51 202.238 126.503H206.563C206.92 126.503 207.099 126.681 207.099 127.036V129.028C207.099 129.384 206.92 129.562 206.563 129.562H199.055C198.983 129.569 198.91 129.56 198.841 129.536C198.773 129.512 198.711 129.473 198.659 129.422C198.608 129.371 198.569 129.309 198.545 129.241C198.52 129.173 198.511 129.1 198.519 129.028V117.649C198.51 117.577 198.517 117.504 198.541 117.435C198.565 117.366 198.604 117.304 198.656 117.252C198.707 117.201 198.77 117.162 198.839 117.138C198.909 117.115 198.982 117.107 199.055 117.116H206.563Z" fill="#F3E0B5"/>
</g>
<defs>
<clipPath id="clip0_131_7543">
<rect width="152" height="80" fill="white" transform="translate(57.6666 51.333)"/>
</clipPath>
</defs>
</svg>
