<svg width="267" height="182" viewBox="0 0 267 182" fill="none" xmlns="http://www.w3.org/2000/svg">
<g clip-path="url(#clip0_131_7609)">
<mask id="mask0_131_7609" style="mask-type:luminance" maskUnits="userSpaceOnUse" x="70" y="59" width="128" height="65">
<path d="M197.333 59.333H70.3333V123.333H197.333V59.333Z" fill="white"/>
</mask>
<g mask="url(#mask0_131_7609)">
<path d="M75.8347 114.013C75.3185 114.013 75.196 114.14 75.196 114.634V120.521C75.196 121.034 75.3192 121.161 75.8377 121.161H83.2933V122.981H74.3488C72.5492 122.981 71.5698 122.351 71.5698 120.142V115.082C71.5698 112.849 72.5484 112.217 74.3473 112.217H83.0334V114.018L75.8347 114.013ZM95.4824 112.214V116.445H89.6643V112.214H85.9992V122.981H89.6643V118.171H95.4809V122.981H99.1415V112.214H95.4824ZM114.972 114.015L118.309 121.789C118.424 122.133 118.644 122.433 118.939 122.647C119.233 122.86 119.588 122.976 119.952 122.979H123.369C123.718 122.978 124.058 122.862 124.334 122.648C124.61 122.434 124.807 122.136 124.895 121.798C125.146 121.237 128.982 112.212 128.982 112.212H126.194L122.654 121.029C122.588 121.182 122.512 121.199 122.273 121.197C122.033 121.195 121.955 121.182 121.892 121.029L118.375 112.214H104.706C102.907 112.214 101.926 112.849 101.926 115.079V120.149C101.926 122.349 102.902 122.981 104.706 122.981H113.94V121.162H106.197C105.674 121.162 105.554 121.036 105.554 120.522V118.321H113.243V116.543H105.553V114.635C105.553 114.139 105.674 114.013 106.191 114.013L114.972 114.015ZM150.413 113.996C149.883 113.996 149.783 114.123 149.783 114.616V120.544C149.783 121.05 149.901 121.181 150.409 121.182H155.087C155.595 121.182 155.715 121.05 155.715 120.544V114.616C155.715 114.123 155.593 114 155.082 113.996H150.409M159.345 115.066V120.152C159.345 122.362 158.365 122.98 156.562 122.98H148.924C147.127 122.98 146.146 122.362 146.146 120.152V115.068C146.146 112.835 147.13 112.214 148.924 112.214H156.559C158.359 112.214 159.342 112.832 159.342 115.067M165.559 121.169V112.214H161.923V122.981H172.136V121.167L165.559 121.169ZM175.71 112.214C173.917 112.214 172.928 112.845 172.928 115.079V120.139C172.928 122.347 173.912 122.978 175.71 122.978H184.948V121.174H177.205C176.682 121.174 176.561 121.046 176.561 120.534V118.321H184.218V116.53H176.558V114.632C176.558 114.138 176.684 114.013 177.2 114.013L189.281 114.003V122.981H192.926V114.002H197.109V112.216L175.71 112.214ZM140.081 119.482L138.861 118.915L138.857 118.823H141.522C141.833 118.848 142.146 118.805 142.438 118.698C142.731 118.591 142.997 118.421 143.217 118.201C143.437 117.981 143.607 117.716 143.714 117.424C143.821 117.133 143.864 116.821 143.838 116.512V114.651C143.838 112.865 142.91 112.212 141.522 112.212H130.129V122.981H133.736V113.976H139.76C140.091 113.976 140.18 114.071 140.193 114.263L140.197 116.956C140.174 117.134 139.994 117.245 139.755 117.245H134.769L134.773 118.889L139.819 122.982H144.837L140.081 119.482ZM84.3034 86.2076L90.8678 73.4381H118.389V64.5078H149.194V73.4381H183.363L176.799 86.2076H149.194V95.1378H118.389V86.2076H84.3034ZM154.411 59.332H113.173V68.2623H82.2012L70.3334 91.3819H113.172V100.312H154.41V91.3819H185.466L197.333 68.2623H154.411V59.332Z" fill="white"/>
</g>
</g>
<defs>
<clipPath id="clip0_131_7609">
<rect width="127" height="64" fill="white" transform="translate(70.3333 59.333)"/>
</clipPath>
</defs>
</svg>
