<svg width="267" height="182" viewBox="0 0 267 182" fill="none" xmlns="http://www.w3.org/2000/svg">
<path d="M153.356 71.001L153.482 71.0951C154.624 75.9317 155.036 78.6053 154.225 83.5956C152.587 93.68 143.95 100.296 134.008 101.488C129.774 101.937 125.453 101.863 121.197 101.845C119.251 101.837 114.971 102.133 113.325 101.403C110.098 99.3576 112.065 95.7078 112.725 92.8217C112.976 91.7238 113.463 89.5866 113.888 88.6104C119.904 88.4183 126.097 88.8851 132.116 88.3556C143.453 87.3582 150.652 82.3537 153.356 71.001Z" fill="white"/>
<path d="M119.159 53.4795C119.314 53.5266 120.026 53.8841 120.275 53.9829C121.318 54.3931 122.408 54.6749 123.52 54.822C125.209 55.0401 127.066 55.0194 128.769 55.0188L134.443 55.0136C136.01 55.0121 137.674 54.9478 139.207 55.25C140.792 55.566 142.296 56.1933 143.631 57.0949C147.566 59.736 148.774 63.767 148.347 68.2998C148.135 70.5467 147.031 72.8556 145.761 74.6943C144.846 73.4553 144.604 72.5181 143.284 71.3949C139.897 68.5126 136.231 68.7084 132.099 68.71L124.828 68.7178C122.837 68.7248 120.898 68.9088 119.098 67.9328C117.983 67.3285 116.993 66.4187 116.627 65.1844C116.449 64.6028 116.395 63.9908 116.469 63.3875C116.583 62.4217 118.835 54.0609 119.159 53.4795Z" fill="white"/>
<path d="M93.1687 110.992C94.3789 110.91 96.0047 110.958 97.2428 110.951C98.9047 110.974 100.715 110.914 102.365 110.97C107.74 111.153 112.205 114.468 111.819 120.139C111.642 122.752 111.062 124.264 109.104 126.05C106.183 128.711 102.407 128.495 98.8012 128.49L93.0272 128.472C93.1029 127.768 93.0548 126.12 93.0552 125.336L93.047 114.666C93.0464 114.108 92.9781 111.322 93.1687 110.992ZM98.2616 124.511C100.711 124.525 103.35 124.89 105.272 123.134C107.146 121.036 107.254 118.235 105.233 116.183C103.428 114.351 100.362 115.357 98.3722 114.885C98.1611 115.28 98.2498 123.436 98.2616 124.511Z" fill="white"/>
<path d="M119.021 114.738C121.238 114.595 123.92 114.716 125.702 116.216C126.397 116.798 126.917 117.558 127.205 118.413C127.865 120.429 127.364 126.021 127.568 128.461C126.007 128.512 124.439 128.44 122.881 128.494C122.898 128.168 122.968 127.387 122.76 127.158C121.946 127.849 121.447 128.373 120.39 128.549C118.522 128.86 116.749 128.719 115.152 127.7C113.994 126.866 113.333 125.445 113.548 124.029C114.137 120.165 118.807 120.4 121.788 120.44C122.049 120.443 122.394 120.432 122.609 120.277C122.711 119.904 122.311 119.472 122.115 119.19C121.668 118.549 121.167 118.489 120.424 118.423C119.003 118.297 116.965 118.552 115.836 119.487C115.31 118.796 114.477 117.013 114.217 116.167C115.811 115.343 117.211 114.903 119.021 114.738ZM118.338 124.33L118.573 125.145C119.043 125.45 119.328 125.544 119.884 125.643C121.938 125.668 122.571 124.882 122.668 122.966L121.365 122.947C119.94 122.971 118.787 122.724 118.338 124.33Z" fill="white"/>
<path d="M164.955 114.736C165.346 114.71 165.737 114.696 166.128 114.693C168.163 114.674 170.43 114.998 171.943 116.482C172.543 117.067 172.981 117.794 173.217 118.595C173.582 119.875 173.5 122.132 173.495 123.514L173.483 128.474C171.92 128.487 170.356 128.485 168.794 128.467C168.863 127.976 168.848 127.487 168.847 126.991C168.024 127.78 167.279 128.403 166.102 128.588C164.336 128.867 162.597 128.68 161.108 127.683C159.82 126.824 159.203 125.219 159.551 123.724C160.331 120.369 164.409 120.38 167.162 120.418C167.462 120.422 168.273 120.473 168.499 120.329C168.917 118.127 164.818 118.219 163.543 118.635C163.006 118.811 162.337 119.117 161.813 119.344C161.267 118.884 160.443 116.882 160.155 116.161C161.757 115.338 163.141 114.914 164.955 114.736ZM164.237 124.376C164.358 124.636 164.526 125.026 164.677 125.258C165.489 125.648 166.193 125.823 167.078 125.481C168.453 125.016 168.547 124.265 168.59 122.974C167.513 122.96 166.517 122.943 165.44 123.026C164.927 123.241 164.62 123.366 164.404 123.907C164.344 124.062 164.288 124.218 164.237 124.376Z" fill="white"/>
<path d="M150.382 114.735L150.506 114.728C152.311 114.63 154.063 114.81 155.468 116.078C156.157 116.712 156.655 117.523 156.907 118.42C157.275 119.74 157.135 121.401 157.171 122.771C157.22 124.652 157.072 126.604 157.168 128.479L152.274 128.485C152.311 127.049 152.305 125.589 152.296 124.151C152.285 122.379 152.5 120.745 151.546 119.162C150.326 118.704 149.327 118.553 148.154 119.272C147.749 119.687 147.311 120.29 147.256 120.87C147.027 123.274 147.089 126.058 147.14 128.468C145.547 128.52 143.763 128.478 142.16 128.454C142.267 127.931 142.216 125.028 142.215 124.281L142.204 114.85C143.594 114.845 145.547 114.79 146.911 114.902C146.898 115.346 146.848 115.883 146.818 116.333C147.974 115.414 148.919 114.957 150.382 114.735Z" fill="white"/>
<path d="M139.139 114.735L140.17 114.698C140.099 115.952 140.148 117.705 140.146 119.004C139.498 119.002 138.774 119 138.131 119.058C135.261 119.319 135.58 122.388 135.582 124.432L135.579 128.477C134.838 128.481 131.288 128.537 130.811 128.42L130.741 128.283C130.821 127.102 130.752 125.041 130.751 123.814L130.76 114.828C132.069 114.908 134.069 114.854 135.445 114.869L135.447 116.339C136.626 115.32 137.611 114.917 139.139 114.735Z" fill="white"/>
</svg>
