<svg width="267" height="182" viewBox="0 0 267 182" fill="none" xmlns="http://www.w3.org/2000/svg">
<g clip-path="url(#clip0_131_7624)">
<path d="M121.163 71.1234C122.288 70.9706 123.353 71.4235 123.472 72.5887C123.651 74.3402 123.541 76.4961 123.526 78.2577C124.671 77.4652 125.437 77.0521 126.834 77.0506C132.989 77.0441 132.28 82.0717 132.242 86.4196C132.23 87.6829 132.53 90.2501 131.684 91.1702C130.343 92.629 128.29 91.1356 128.416 89.3935C128.412 87.6017 128.414 85.7503 128.421 83.9371C128.441 82.5871 128.541 81.0882 127.063 80.5021C126.362 80.2239 125.578 80.2415 124.89 80.5508C122.803 81.4645 123.741 85.0687 123.543 86.9131C123.405 88.1934 124.048 90.9531 122.336 91.5991C120.827 92.1685 119.59 90.7628 119.752 89.3292C119.732 84.0502 119.717 78.7675 119.753 73.4887C119.763 72.1301 119.866 71.5927 121.163 71.1234Z" fill="white"/>
<path d="M140.274 76.8408C140.348 76.8421 140.423 76.8448 140.498 76.8489C142.424 76.9546 144.073 77.7556 145.359 79.188C146.513 80.4739 147.217 82.1465 147.111 83.8932C147.088 84.2762 147.002 84.7863 146.691 85.0486C146.132 85.5193 138.525 85.4106 137.441 85.3071C137.445 85.377 137.449 85.4468 137.455 85.5166C137.645 87.9317 141.145 88.5502 143.034 87.4578C144.308 86.7203 145.332 86.067 146.54 87.1119C146.832 87.7626 146.96 88.6384 146.412 89.1783C143.891 91.6613 138.664 92.0606 135.929 89.7354C134.514 88.5326 133.59 86.5779 133.461 84.7732C133.319 82.7844 133.914 80.7566 135.214 79.2384C136.663 77.518 138.113 77.0078 140.274 76.8408ZM137.309 82.7456C138.448 82.8333 139.634 82.8091 140.778 82.806C141.377 82.8129 142.796 82.9996 143.223 82.6067C143.581 81.7673 142.094 80.4802 141.377 80.2405C140.801 80.048 140.536 80.0002 139.923 80.0584C138.286 80.3205 137.663 81.2418 137.309 82.7456Z" fill="white"/>
<path d="M209.381 95.8711C209.66 95.2468 210.058 93.7828 210.632 93.4652C210.911 93.3104 212.036 93.3067 212.077 93.919C212.117 94.5211 212.322 98.0174 211.788 98.1592C211.539 98.2235 211.274 98.1918 211.047 98.0704C211.013 98.0289 210.969 97.978 210.919 97.9176C210.886 97.1419 210.858 96.0226 210.766 95.2801C210.52 96.0257 209.581 99.8504 208.609 97.571C208.43 97.1496 208.4 96.5567 208.133 96.162L208.017 96.12C207.84 96.3333 207.802 96.9561 207.764 97.2633C207.775 97.1852 207.668 96.7101 207.685 96.4771C207.749 95.9649 208.016 95.5416 207.796 95.1889L207.652 95.1631C207.166 95.5782 207.801 97.4424 207.175 97.8356C206.672 97.6597 206.535 93.872 207.244 93.6718C208.322 93.3671 208.586 95.8301 209.228 96.1207L209.372 96.0504L209.381 95.8711Z" fill="white"/>
<path d="M202.635 93.4056C203.386 93.355 205.262 93.2602 205.808 93.7143C205.726 94.0606 205.829 94.12 205.717 94.3546C205.421 94.5564 204.867 94.5008 204.514 94.4835C204.413 95.5002 204.497 96.5715 204.398 97.6418C204.356 97.8479 204.345 97.9651 204.217 98.1367C202.612 98.7521 203.095 95.4561 203.07 94.5036L201.732 94.4505C201.706 94.1634 201.641 93.8246 201.803 93.6006C202.022 93.4244 202.344 93.4324 202.635 93.4056Z" fill="white"/>
<path d="M207.685 96.4767C207.536 97.0903 207.775 97.5332 207.479 98.1999C206.906 98.4175 206.444 97.7699 206.499 97.1744C206.603 96.0392 206.518 94.8579 206.577 93.7217C206.582 93.6081 207.044 93.3948 207.145 93.3544C208.664 92.778 208.652 95.5334 209.381 95.8707L209.372 96.0499L209.228 96.1203C208.586 95.8296 208.322 93.3666 207.244 93.6713C206.535 93.8716 206.672 97.6593 207.175 97.8351C207.801 97.442 207.166 95.5777 207.652 95.1626L207.796 95.1884C208.016 95.5412 207.748 95.9645 207.685 96.4767Z" fill="white"/>
<path d="M95.5221 68.333H99.2771L99.2996 68.3431C100.006 68.6549 101.435 68.794 102.236 69.1013C103.31 69.5134 104.068 69.9789 105.01 70.5937C107.756 72.3862 109.004 74.4682 110.332 77.3779C109.763 77.6642 109.438 77.8741 109.23 78.5192C109.081 78.9701 109.118 79.4616 109.332 79.8857C109.65 80.5026 110.424 80.8522 111.097 80.8104C110.961 81.3884 111.13 81.9789 111.12 82.5627C111.113 83.0494 111.009 83.5289 110.931 84.0076C110.435 87.0634 108.745 89.9446 106.563 92.1049C106.058 92.6053 105.285 92.8207 104.616 93.5679C103.818 93.8105 100.634 93.3054 99.6815 93.947C99.0289 94.3868 98.916 94.7305 98.7252 95.4565L97.4697 95.4763C96.5146 92.3428 92.9298 94.0917 90.3978 93.5447L90.3707 93.5386C87.9908 92.1891 85.7053 89.6215 84.715 87.0677C81.9501 79.9377 85.1711 71.948 92.4131 69.1823C93.3922 68.8084 94.6419 68.7047 95.4998 68.3426L95.5221 68.333Z" fill="#A5A4A4"/>
<path d="M88.1804 82.6436C88.9717 82.7729 89.1254 84.1968 89.467 84.8936C93.0373 92.1775 103.037 91.3445 105.487 83.6311C105.6 83.2732 105.839 82.8148 106.201 82.6636C106.475 82.7104 106.67 82.9172 106.885 83.1002C106.794 83.7073 106.703 84.1658 106.562 84.7636C105.867 87.2954 104.561 89.1939 102.296 90.6235C100.168 91.9671 97.3282 92.4132 94.8946 91.7811C92.3896 91.1304 90.2063 89.5479 88.9119 87.2736C88.3516 86.2892 87.4928 84.2234 87.7183 83.0661C87.7556 82.8753 88.0139 82.7408 88.1804 82.6436Z" fill="#FEFEFE"/>
<path d="M91.6264 75.3722C92.7761 75.0989 93.9306 75.8053 94.2092 76.9525C94.4878 78.0995 93.7855 79.2558 92.6382 79.539C91.484 79.8239 90.3178 79.1172 90.0376 77.9631C89.7573 76.809 90.4697 75.6472 91.6264 75.3722Z" fill="#FEFEFE"/>
<path d="M101.427 75.3753C102.586 75.1041 103.743 75.8283 104.004 76.9876C104.265 78.1469 103.53 79.2964 102.367 79.5469C101.856 79.6569 101.323 79.5765 100.867 79.3208C100.098 78.889 99.6726 78.0296 99.7965 77.1567C99.9205 76.2839 100.568 75.5764 101.427 75.3753Z" fill="#FEFEFE"/>
<path d="M90.3707 93.5391L90.3978 93.5451C92.9298 94.0922 96.5146 92.3432 97.4697 95.4768L98.7252 95.457C98.916 94.7309 99.0289 94.3872 99.6815 93.9475C100.634 93.3059 103.818 93.811 104.616 93.5683C105.73 93.626 106.777 93.5054 107.888 93.7226C109.808 94.0979 109.526 97.187 107.654 97.3092C106.043 97.4145 104.356 97.3554 102.725 97.3741C102.755 98.5991 102.7 99.8684 102.737 101.052C104.343 101.117 107.692 100.715 108.678 101.785C108.702 101.811 108.725 101.837 108.749 101.863C109.023 103 109.057 104.432 107.516 104.657C106.038 104.874 104.268 104.731 102.744 104.764C102.704 105.91 102.725 107.437 102.766 108.597C104.297 108.715 108.016 108.226 109.075 109.378C109.884 110.258 109.287 111.582 108.419 112.333H99.9142C99.7865 112.222 99.6599 112.109 99.5343 111.995C99.2531 111.738 98.8539 111.3 98.8352 110.901C98.5964 105.818 98.9458 100.585 98.719 95.5092C98.3131 95.493 97.841 95.529 97.4303 95.5502C96.6194 97.926 94.8321 97.3209 92.68 97.3119C92.4652 101.797 92.8386 106.411 92.5694 110.899C92.5316 111.528 92.021 111.996 91.5509 112.333H89.9775C88.9277 111.42 88.773 111.162 88.7819 109.751C88.7884 108.725 88.7808 107.646 88.7813 106.617L88.7775 97.3145C87.4024 97.2647 84.7504 97.75 84.2502 96.1275C84.0367 95.4351 84.3166 94.7185 84.6069 94.0991C86.5751 93.1066 88.3533 93.899 90.3707 93.5391Z" fill="white"/>
<path d="M189.001 94.0936C190.488 93.389 191.465 93.6388 193.044 93.615C197.561 93.5471 201.675 93.9593 201.702 99.5289C201.725 103.969 197.368 104.093 197.103 104.516C197.954 106.242 200.661 107.879 201.632 109.651C202.182 110.654 201.462 111.752 200.647 112.333H199.082C196.851 110.111 195.121 107.711 193.039 105.364C192.907 105.215 192.723 105.04 192.523 105.002C191.756 105.98 193.537 110.726 191.203 112.333H189.595C189.01 111.807 188.451 111.338 188.429 110.518C188.397 109.317 188.408 108.116 188.408 106.915L188.41 100.45L188.412 97.0055C188.411 95.6327 188.188 95.2322 189.001 94.0936ZM192.363 101.771C193.906 101.829 195.67 102.043 196.99 101.211C197.269 100.899 197.458 100.624 197.526 100.202C198.114 96.5741 194.527 97.4443 192.397 97.3043C192.368 98.7891 192.425 100.298 192.363 101.771Z" fill="white"/>
<path d="M110.552 111.095C110.438 110.218 110.475 108.894 110.474 107.981L110.471 103.003L110.471 98.0865C110.472 97.1167 110.436 96.0735 110.536 95.1204C110.616 94.3477 111.593 93.6778 112.332 93.6321C113.167 93.5804 113.984 93.6224 114.82 93.6247C117.223 93.588 119.881 93.4789 121.92 94.9847C123.007 95.7876 123.553 97.1884 123.742 98.4918C124.193 101.598 122.227 104.021 119.054 104.443C119.366 104.964 119.627 105.239 120.054 105.67C120.922 106.547 121.775 107.44 122.612 108.347C123.246 109.034 124.094 109.815 123.851 110.852C123.7 111.496 123.12 111.92 122.642 112.333H121.229C119.752 111.227 118.102 108.862 116.829 107.423C116.154 106.661 115.346 105.381 114.476 104.903C114.348 106.759 114.571 108.82 114.378 110.66C114.299 111.416 113.855 111.92 113.238 112.333H111.668C111.142 111.846 110.977 111.685 110.552 111.095ZM114.432 101.781C115.885 101.829 117.84 102.051 118.989 101.195C119.247 100.9 119.493 100.585 119.554 100.185C120.117 96.4752 116.58 97.5052 114.473 97.2962C114.377 98.5974 114.431 100.44 114.432 101.781Z" fill="white"/>
<path d="M170.827 105.207C170.968 104.335 170.925 102.97 170.922 102.043L170.909 97.3483C170.907 96.3665 170.728 94.2365 171.648 93.6251C172.467 93.0815 173.971 93.1271 174.521 94.0515C174.74 94.3876 174.82 94.5226 174.839 94.9428C174.92 96.0163 174.892 97.1324 174.89 98.2102L174.885 103.617L174.889 108.209C174.888 110.013 175.233 111.05 173.777 112.333H172.321C171.179 111.679 169.067 108.731 168.219 107.609C167.099 106.142 165.969 104.685 164.828 103.235C164.241 102.479 163.387 101.243 162.648 100.717C162.602 102.841 162.681 105.037 162.647 107.168C162.63 108.276 162.691 109.426 162.555 110.529C162.444 111.431 162.093 111.807 161.392 112.333H159.818C158.991 111.743 158.863 111.586 158.664 110.581C158.589 107.05 158.712 103.402 158.66 99.8598C158.64 98.4725 158.702 97.0075 158.64 95.6315C158.682 94.6852 158.68 94.5579 159.15 93.7363C161.595 92.1392 163.038 95.1211 164.324 96.7877L168.1 101.678C168.982 102.838 169.878 104.099 170.827 105.207Z" fill="white"/>
<path d="M78.7619 105.104C78.9854 101.744 78.5932 98.2215 78.8828 94.8641C79.0423 93.0142 80.9776 93.0779 82.2807 93.7268C82.993 94.8638 82.7808 95.9673 82.7813 97.2795L82.7822 101.853L82.7815 107.98C82.7812 108.923 82.8318 110.166 82.7022 111.091C82.6315 111.596 81.9921 112.044 81.5988 112.333H80.2771C80.0348 112.155 79.4861 111.792 79.3063 111.588C76.2532 108.126 73.6974 103.98 70.6147 100.57C70.4835 103.94 70.733 107.536 70.4951 110.91C70.451 111.535 69.8353 112.009 69.3413 112.333H67.8264C66.2806 111.229 66.5979 110.159 66.5969 108.421L66.5946 104.554L66.5949 98.6076C66.5956 97.5298 66.6492 96.3755 66.6317 95.2393C66.6031 93.3877 68.5487 92.7409 69.8464 93.7262C70.5027 94.2246 71.6306 95.905 72.2194 96.6802L75.8988 101.506C76.8993 102.821 77.6355 103.876 78.7619 105.104Z" fill="white"/>
<path d="M135.076 111.082C135.06 110.75 135.028 110.297 135.126 109.988C135.907 107.552 136.933 105.138 137.841 102.755L139.823 97.5344C140.504 95.7405 140.979 93.3823 143.343 93.2387C145.078 93.1334 145.998 94.3677 146.556 95.8472C147.236 97.6547 147.882 99.4806 148.547 101.295L150.188 105.738C150.558 106.722 150.961 107.691 151.29 108.691C151.631 109.725 152.142 110.949 151.264 111.87C151.101 112.042 150.922 112.197 150.728 112.333H149.16C147.981 111.314 147.725 110.087 147.232 108.576C145.007 108.509 141.97 108.483 139.768 108.603C139.233 109.991 139.046 111.452 137.862 112.333H136.263C135.756 111.914 135.406 111.663 135.076 111.082ZM141.033 104.93L143.575 104.946C144.301 104.945 145.271 104.969 145.976 104.915C145.7 103.949 143.724 97.6027 143.416 97.3537C143.155 98.1879 142.828 99.1916 142.565 100.003C142.227 101.044 141.085 103.961 141.033 104.93Z" fill="white"/>
<path d="M176.535 94.1003C178.09 93.2239 180.332 93.7587 182.142 93.6185C183.288 93.6381 185.612 93.3371 186.21 94.5782C186.921 96.0531 185.816 97.4536 184.232 97.3623C182.87 97.2839 181.224 97.4597 179.858 97.3493C179.839 98.5882 179.836 99.8273 179.848 101.066C181.695 101.086 184.683 100.658 186.023 101.943C186.144 102.617 186.326 103.298 185.886 103.901C185.039 105.062 183.292 104.697 182.032 104.748C181.347 104.775 180.563 104.761 179.875 104.754C179.825 106.025 179.839 107.323 179.841 108.597C180.425 108.643 183.006 108.731 183.528 108.637C186.167 108.158 187.959 110.672 185.577 112.333H177.056C176.585 111.863 176.337 111.601 175.948 111.057C175.833 110.012 175.872 108.617 175.871 107.541L175.868 101.963L175.87 97.8278C175.871 96.2005 175.632 95.4914 176.535 94.1003Z" fill="white"/>
<path d="M54.3334 94.8874C54.762 94.3419 55.3715 93.6748 56.1307 93.6586C58.4557 93.6087 60.8568 93.527 63.1717 93.7174C63.8231 93.7716 64.3368 94.3352 64.6558 94.8551C64.7373 96.2081 64.2777 97.3547 62.6871 97.3557C61.2344 97.3567 59.7266 97.3988 58.2802 97.3715C58.2241 98.5431 58.3222 99.9755 58.2315 101.052C59.7099 101.106 66.3416 100.216 63.8287 104.218C63.3619 104.962 59.3536 104.789 58.3867 104.734C58.3653 104.733 58.344 104.731 58.3227 104.73C58.1982 105.767 58.2552 107.49 58.2608 108.591C60.0435 108.836 63.3303 108.07 64.5636 109.445C65.2821 110.246 64.8455 111.541 63.9864 112.169C63.9094 112.225 63.8317 112.28 63.7531 112.333H54.3334V94.8874Z" fill="white"/>
<path d="M125.078 94.0968C125.414 93.899 125.723 93.7155 126.114 93.6605C127.169 93.5125 135.541 93.5268 136.469 93.7646C136.877 93.8688 137.276 94.1899 137.489 94.551C137.742 94.9805 137.745 95.4981 137.618 95.9683C137.512 96.362 137.286 96.6981 137.047 97.0237C135.993 97.453 134.315 97.32 133.123 97.3126C132.93 101.822 133.293 106.511 132.994 111.017C132.962 111.484 132.275 112.08 131.911 112.333H130.431C129.872 111.924 129.341 111.598 129.308 110.82C129.118 106.333 129.296 101.807 129.233 97.3128C127.928 97.2997 125.525 97.6699 124.812 96.4263C124.401 95.7116 124.71 94.7658 125.078 94.0968Z" fill="white"/>
<path d="M112.091 73.4715C113.085 72.8614 114.278 72.6131 114.964 73.7782C115.504 74.6954 115.365 76.2497 115.356 77.303C116.307 77.3373 117.174 77.2448 117.848 77.9741C117.924 78.0569 117.997 78.1424 118.066 78.2305C118.495 80.4626 117.351 80.8576 115.364 80.8163C115.348 82.9194 115.346 85.0226 115.357 87.1258C115.359 88.624 115.779 91.7451 113.463 91.7216C112.986 91.7186 112.531 91.5225 112.201 91.1781C111.264 90.195 111.707 87.6883 111.603 86.3492C111.465 84.5731 111.445 82.7552 111.3 80.9768C111.295 80.9062 111.155 80.8338 111.097 80.8107C110.424 80.8526 109.65 80.5029 109.332 79.886C109.118 79.462 109.081 78.9705 109.23 78.5196C109.438 77.8745 109.763 77.6646 110.332 77.3782L111.55 77.2519C111.619 75.8691 111.454 74.6856 112.091 73.4715Z" fill="white"/>
<path d="M152.803 94.7811C153.53 94.47 154.575 92.0032 156.203 94.8108C156.355 95.0733 156.277 96.7943 156.277 97.2669L156.27 105.342C156.269 106.467 156.162 109.988 156.439 110.888C156.18 111.656 155.942 111.812 155.336 112.333H153.94C153.513 111.955 152.85 111.412 152.803 110.807C152.735 109.928 152.759 109.024 152.758 108.142L152.757 103.304L152.759 97.8587C152.759 96.9627 152.718 95.626 152.803 94.7811Z" fill="white"/>
<path d="M152.803 94.7808C153.03 93.8664 153.599 93.2952 154.541 93.2853C155.726 93.2727 156.451 94.0614 156.48 95.2259C156.52 96.3586 156.51 97.485 156.509 98.6208L156.502 104.668L156.501 108.611C156.501 109.163 156.521 110.38 156.439 110.888C156.162 109.988 156.269 106.467 156.27 105.341L156.277 97.2666C156.277 96.794 156.355 95.073 156.203 94.8105C154.575 92.0029 153.53 94.4698 152.803 94.7808Z" fill="white"/>
<path d="M158.322 95.3648C158.328 95.2044 158.315 95.0188 158.407 94.8926C158.558 95.1123 158.587 95.3689 158.64 95.6314C158.702 97.0074 158.64 98.4725 158.66 99.8597C158.712 103.402 158.589 107.05 158.664 110.581L158.409 110.562C158.252 110.343 158.31 110.254 158.318 109.94L158.417 110.31C158.613 110.018 158.418 101.259 158.489 100.222C158.509 99.9333 158.502 95.4684 158.444 95.2867L158.322 95.3648Z" fill="white"/>
<path d="M158.322 95.3642L158.444 95.2861C158.502 95.4678 158.509 99.9327 158.489 100.222C158.418 101.258 158.613 110.018 158.417 110.309L158.318 109.94C158.407 109.047 158.329 106.138 158.329 105.109L158.322 95.3642Z" fill="white"/>
</g>
<defs>
<clipPath id="clip0_131_7624">
<rect width="158" height="44" fill="white" transform="translate(54.3334 68.333)"/>
</clipPath>
</defs>
</svg>
