<svg width="267" height="182" viewBox="0 0 267 182" fill="none" xmlns="http://www.w3.org/2000/svg">
<g clip-path="url(#clip0_131_7485)">
<mask id="mask0_131_7485" style="mask-type:luminance" maskUnits="userSpaceOnUse" x="-198" y="-364" width="664" height="1004">
<path d="M-197.545 639.425H465.232V-363.432H-197.545V639.425Z" fill="white"/>
</mask>
<g mask="url(#mask0_131_7485)">
<path d="M53.5225 99.8245C52.133 97.441 51.2446 94.2116 51.2446 91.0776C51.2446 87.996 52.0005 85.1013 53.3244 82.5998L53.4747 82.3139C54.8007 79.4658 57.7924 77.517 60.7061 77.517V77.5134C62.6078 77.5134 64.6453 78.1138 66.2229 78.9881C69.0888 80.8809 71.3468 83.7172 72.6216 87.1073V81.9649C72.616 80.813 70.9738 79.5575 70.9738 79.5575C68.1758 77.3526 64.7188 76.0852 60.9778 76.0852C59.4614 76.0852 57.3326 76.4985 57.3326 76.4985C51.0464 77.9172 46.3401 83.928 46.3401 91.0776C46.3401 98.7072 51.7233 104.996 58.6486 105.829C58.6486 105.829 60.0793 106.059 61.0346 105.991C65.0862 105.991 68.8004 104.463 71.7097 101.921L72.0916 101.454C72.4368 100.962 72.6472 100.353 72.6472 99.6911V95.4219C72.6472 94.1592 73.2317 93.0359 74.1235 92.345H66.6772C67.5668 93.0359 68.1502 94.158 68.1502 95.4219L68.1992 99.4171C68.1992 100.214 67.9008 100.934 67.4143 101.455C66.8041 102.181 64.4705 103.449 64.4705 103.449C63.3415 104.099 62.0489 104.467 60.6783 104.467C57.5753 104.467 54.8608 102.592 53.5225 99.8245Z" fill="white"/>
</g>
<mask id="mask1_131_7485" style="mask-type:luminance" maskUnits="userSpaceOnUse" x="-198" y="-364" width="664" height="1004">
<path d="M-197.557 639.423H465.22V-363.434H-197.557V639.423Z" fill="white"/>
</mask>
<g mask="url(#mask1_131_7485)">
<path d="M129.322 90.9967C129.322 98.1498 134.027 104.013 140.315 105.429C140.315 105.429 142.44 105.846 143.961 105.844C147.699 105.843 151.097 104.592 153.894 102.389C153.894 102.389 155.597 101.261 155.603 100.111L156.267 94.6727C154.337 99.802 151.087 101.725 149.205 102.89C147.625 103.769 145.592 104.399 143.687 104.399V104.394C140.774 104.394 137.798 102.613 136.471 99.7615L136.307 99.4756C134.983 96.9717 134.225 94.0807 134.225 90.9967C134.225 87.9138 134.983 85.024 136.307 82.5201L136.456 82.2354C137.784 79.3873 140.774 77.4361 143.687 77.4361V77.4337C145.592 77.4337 147.625 78.0329 149.205 78.9108C152.069 80.8 154.329 83.6398 155.603 87.0228V81.8864C155.597 80.7357 153.957 79.4766 153.957 79.4766C151.158 77.2717 147.699 76.0066 143.961 76.0043C142.44 76.0007 140.315 76.4188 140.315 76.4188C134.027 77.8351 129.322 83.8459 129.322 90.9967Z" fill="white"/>
</g>
<mask id="mask2_131_7485" style="mask-type:luminance" maskUnits="userSpaceOnUse" x="-198" y="-364" width="664" height="1004">
<path d="M-197.544 639.414H465.233V-363.443H-197.544V639.414Z" fill="white"/>
</mask>
<g mask="url(#mask2_131_7485)">
<path d="M172.644 91.0218C172.644 98.1738 177.349 104.037 183.635 105.453C183.635 105.453 185.763 105.87 187.279 105.87C191.022 105.867 194.417 104.619 197.213 102.414C197.213 102.414 198.917 101.285 198.924 100.132L199.588 94.7015C197.658 99.8248 194.413 101.747 192.524 102.916C190.948 103.793 188.913 104.422 187.012 104.422C184.094 104.422 181.118 102.636 179.794 99.7879L179.628 99.4996C178.306 96.9969 177.548 94.1047 177.548 91.0218C177.548 87.9414 178.306 85.0468 179.628 82.5465L179.777 82.2582C181.103 79.4113 184.094 77.4613 187.012 77.4613V77.4577C188.913 77.4577 190.948 78.0569 192.524 78.9348C195.391 80.8276 197.649 83.6638 198.924 87.0516V81.9104C198.917 80.7597 197.277 79.4994 197.277 79.4994C194.478 77.2981 191.022 76.0294 187.279 76.0283C185.763 76.0247 183.635 76.4416 183.635 76.4416C177.349 77.8639 172.644 83.8723 172.644 91.0218Z" fill="white"/>
</g>
<mask id="mask3_131_7485" style="mask-type:luminance" maskUnits="userSpaceOnUse" x="-198" y="-364" width="664" height="1004">
<path d="M-197.557 639.425H465.221V-363.432H-197.557V639.425Z" fill="white"/>
</mask>
<g mask="url(#mask3_131_7485)">
<path d="M221.332 77.3115H214.098C214.987 77.9786 215.568 79.0721 215.568 80.3228V102.916C215.568 104.13 215.018 105.208 214.172 105.874H221.258C220.412 105.208 219.862 104.13 219.862 102.916V80.3228C219.862 79.0721 220.443 77.9786 221.332 77.3115Z" fill="white"/>
</g>
<mask id="mask4_131_7485" style="mask-type:luminance" maskUnits="userSpaceOnUse" x="-198" y="-364" width="664" height="1004">
<path d="M-197.545 639.425H465.232V-363.432H-197.545V639.425Z" fill="white"/>
</mask>
<g mask="url(#mask4_131_7485)">
<path d="M96.2098 77.3115H88.975C89.8646 77.9786 90.4458 79.1007 90.4458 80.3491L90.4413 80.3586V97.2462C90.6885 100.324 92.4966 102.947 95.0173 104.155L95.0429 104.171C97.1016 105.241 99.3929 105.874 101.836 105.874C104.316 105.874 106.659 105.308 108.738 104.204L108.78 104.186C111.298 102.956 113.094 100.334 113.319 97.2414V80.2776C113.319 79.0268 113.901 77.9786 114.791 77.3115H110.565C111.454 77.9786 112.035 79.0268 112.035 80.2776V97.2414L112.031 97.2974C111.853 99.1628 111.004 100.81 109.726 101.948L109.667 102.009C108.243 103.187 105.73 104.088 103.364 104.088C101.889 104.088 100.478 103.757 99.1792 103.227L99.0444 103.171C96.7197 102.305 95.0051 99.9693 94.7368 97.2617L94.7334 97.2259V80.3586L94.7301 80.3491C94.7301 79.1007 95.3213 77.9786 96.2098 77.3115Z" fill="white"/>
</g>
</g>
<defs>
<clipPath id="clip0_131_7485">
<rect width="175" height="30" fill="white" transform="translate(46.3333 76)"/>
</clipPath>
</defs>
</svg>
