<svg width="267" height="182" viewBox="0 0 267 182" fill="none" xmlns="http://www.w3.org/2000/svg">
<g clip-path="url(#clip0_131_7517)">
<path d="M69.4634 85.5602V67.8875H66.0009V66.8828H73.5701V85.5602H77.0335V86.5649H66V85.5602H69.4634Z" fill="white"/>
<path d="M78.564 85.5603H82.0265V67.8875H78.564V66.8829H86.1313V70.6589H86.2119C87.4999 67.8203 89.8217 66.401 93.1773 66.401C94.7851 66.27 96.383 66.751 97.6497 67.7475C98.6152 68.6445 99.0982 70.0833 99.0988 72.0641V85.5603H102.28V86.5649H91.8149V85.5603H94.9966V72.2658C95.0464 71.1565 94.8177 70.0524 94.3312 69.0537C94.0625 68.6326 93.6799 68.296 93.2275 68.0829C92.775 67.8697 92.2714 67.7887 91.7747 67.8492C90.9586 67.8208 90.1488 68.0017 89.4226 68.3744C88.6965 68.7471 88.0782 69.2992 87.6269 69.9781C86.6048 71.4948 86.0841 73.2924 86.1376 75.1192V85.5585H89.3175V86.5631H78.564V85.5603Z" fill="white"/>
<path d="M100.707 67.8875V66.8828H112.062V67.8875H108.394L113.347 81.3024L118.542 67.8875H114.635V66.8828H122.81V67.8875H119.91L112.38 86.5934H111.253L103.769 67.8875H100.707Z" fill="white"/>
<path d="M140.487 75.4793H127.034V75.8014C127.034 77.0333 127.074 78.104 127.155 79.0135C127.235 79.9298 127.397 80.8371 127.638 81.7251C127.827 82.513 128.17 83.2564 128.645 83.9137C129.104 84.5007 129.698 84.9691 130.376 85.2798C131.198 85.6478 132.093 85.8262 132.994 85.8017C136.134 85.8017 138.322 84.088 139.557 80.6606L140.443 80.9809C139.871 82.8738 138.698 84.5302 137.101 85.7009C135.417 86.6715 133.488 87.1386 131.545 87.0464C130.272 87.116 129.001 86.8871 127.833 86.3779C126.665 85.8687 125.633 85.0935 124.82 84.1145C123.184 82.0048 122.343 79.3885 122.444 76.7231C122.382 74.0609 123.298 71.468 125.02 69.4335C125.848 68.4444 126.891 67.6569 128.071 67.1311C129.25 66.6054 130.534 66.3553 131.825 66.3998C132.987 66.3546 134.145 66.5549 135.224 66.9874C136.303 67.42 137.278 68.075 138.086 68.9097C139.726 70.6955 140.587 73.0575 140.482 75.4766M127.033 74.2275H135.649C135.649 73.478 135.636 72.8623 135.609 72.3805C135.565 71.7843 135.47 71.1928 135.327 70.6121C135.208 70.021 134.983 69.4563 134.662 68.9454C134.332 68.4883 133.897 68.1164 133.394 67.8604C132.774 67.5391 132.081 67.38 131.382 67.3982C130.617 67.3851 129.871 67.6335 129.267 68.1022C128.66 68.5746 128.188 69.1976 127.898 69.909C127.6 70.6134 127.377 71.3474 127.234 72.0986C127.102 72.8006 127.034 73.5132 127.033 74.2275Z" fill="white"/>
<path d="M156.733 67.6468V72.8682H155.766C155.566 71.4899 155.034 70.1805 154.216 69.0521C153.78 68.559 153.234 68.175 152.622 67.9309C152.01 67.6868 151.349 67.5895 150.692 67.6468C149.838 67.6129 148.997 67.8596 148.297 68.349C147.981 68.59 147.73 68.9048 147.565 69.2656C147.399 69.6265 147.326 70.0223 147.35 70.4181C147.342 70.7826 147.411 71.1447 147.553 71.4804C147.696 71.8162 147.908 72.118 148.176 72.3659C148.755 72.9036 149.451 73.3011 150.209 73.5276C151.015 73.7822 151.901 74.0965 152.867 74.4707C153.773 74.8193 154.66 75.2148 155.524 75.6556C156.375 76.1159 157.079 76.805 157.556 77.6444C158.131 78.6453 158.416 79.785 158.382 80.9377C158.415 81.8225 158.219 82.7009 157.814 83.4886C157.408 84.2764 156.807 84.947 156.067 85.4364C154.514 86.5104 152.662 87.072 150.772 87.0424C148.421 87.0238 146.091 86.6013 143.884 85.7933V79.246H145.092C145.044 80.9911 145.567 82.7043 146.582 84.1266C147.085 84.7661 147.736 85.274 148.479 85.6064C149.223 85.9387 150.036 86.0856 150.85 86.0342C151.938 86.0471 153.002 85.7167 153.891 85.0902C154.257 84.8354 154.564 84.5059 154.793 84.1237C155.022 83.7414 155.167 83.3151 155.219 82.8728C155.27 82.4306 155.227 81.9825 155.091 81.5581C154.956 81.1338 154.733 80.7429 154.435 80.4113C153.887 79.8159 153.203 79.3613 152.441 79.0863C151.649 78.7889 150.784 78.4474 149.847 78.062C148.909 77.6765 148.045 77.2884 147.253 76.8976C146.447 76.4985 145.76 75.8962 145.259 75.1506C144.71 74.332 144.429 73.3638 144.454 72.3793C144.411 71.5542 144.555 70.7301 144.876 69.9683C145.196 69.2066 145.685 68.5268 146.306 67.9796C147.588 66.9055 149.222 66.341 150.896 66.3941C152.893 66.5264 154.86 66.9472 156.735 67.6432" fill="white"/>
<path d="M169.149 84.9981C169.589 84.9993 170.022 84.8836 170.403 84.663C170.784 84.4424 171.099 84.1248 171.316 83.7427C171.415 83.5705 171.511 83.3858 171.61 83.1913L172.536 83.5928L172.173 84.3155C171.677 85.2065 170.936 85.9371 170.037 86.4211C169.138 86.9051 168.119 87.1222 167.1 87.0467C166.502 87.0466 165.911 86.9291 165.359 86.7009C164.807 86.4726 164.305 86.1382 163.882 85.7167C163.46 85.2951 163.125 84.7947 162.896 84.244C162.668 83.6932 162.55 83.103 162.55 82.507V67.8839H159.772V66.8792H162.55V61.54H166.657V66.8828H171.129V67.8839H166.657V82.5087C166.657 83.168 166.92 83.8003 167.387 84.2665C167.854 84.7326 168.488 84.9945 169.149 84.9945" fill="white"/>
<path d="M66 59.333H73.5692V66.8832L66 59.333Z" fill="white"/>
<path d="M119.345 115.678C119.799 116.081 120.162 116.576 120.411 117.13C120.66 117.683 120.789 118.283 120.789 118.89V119.933C120.79 120.835 121.149 121.701 121.789 122.339C122.429 122.977 123.296 123.336 124.201 123.336H129.182V122.331C128.324 122.357 127.464 122.337 126.608 122.271C126.273 122.221 125.951 122.105 125.662 121.93C125.497 121.83 125.355 121.695 125.247 121.536C125.139 121.376 125.067 121.195 125.035 121.005C124.924 120.538 124.877 120.058 124.895 119.578C124.895 117.667 123.306 116.581 121.466 116.072L119.345 115.678Z" fill="white"/>
<path d="M156.646 118.212C157.086 118.213 157.519 118.097 157.9 117.877C158.281 117.656 158.596 117.339 158.813 116.957C158.912 116.784 159.008 116.6 159.107 116.405L160.033 116.808L159.67 117.53C159.174 118.421 158.433 119.152 157.534 119.636C156.635 120.12 155.615 120.337 154.597 120.261C153.999 120.261 153.407 120.144 152.855 119.916C152.303 119.688 151.801 119.353 151.379 118.932C150.956 118.51 150.621 118.01 150.392 117.459C150.164 116.908 150.046 116.318 150.046 115.722V101.1H147.268V100.096H150.046V94.7529H154.153V100.096H158.625V101.1H154.153V115.725C154.153 116.384 154.416 117.017 154.883 117.483C155.35 117.949 155.984 118.211 156.645 118.211" fill="white"/>
<path d="M186.511 118.773V101.1H183.048V100.095H190.618V104.711H190.698C191.161 103.372 191.894 102.142 192.852 101.096C193.293 100.613 193.832 100.231 194.434 99.9741C195.036 99.7176 195.686 99.5933 196.341 99.6097C196.843 99.5775 197.345 99.6543 197.815 99.8346C198.284 100.015 198.708 100.295 199.059 100.654C199.72 101.438 200.058 102.443 200.004 103.466C200.004 105.26 199.306 106.157 197.91 106.157C197.641 106.163 197.372 106.114 197.122 106.013C196.872 105.911 196.646 105.76 196.457 105.567C196.268 105.375 196.121 105.146 196.025 104.894C195.929 104.642 195.886 104.374 195.898 104.105C195.912 103.755 195.946 103.406 195.998 103.06C196.064 102.552 196.098 102.217 196.098 102.055C196.104 101.922 196.082 101.789 196.033 101.664C195.985 101.54 195.911 101.427 195.816 101.333C195.721 101.238 195.608 101.165 195.483 101.116C195.358 101.068 195.225 101.046 195.091 101.052C194.045 101.052 193.038 102.004 192.071 103.908C191.11 105.786 190.613 107.866 190.621 109.975V118.772H193.963V119.776H183.05V118.772L186.511 118.773Z" fill="white"/>
<path d="M180.022 118.713C179.686 118.664 179.365 118.548 179.075 118.372C178.91 118.272 178.769 118.138 178.661 117.978C178.553 117.819 178.481 117.638 178.449 117.448C178.342 116.865 178.295 116.273 178.309 115.681V105.479C178.363 104.685 178.253 103.889 177.986 103.139C177.72 102.39 177.302 101.703 176.758 101.121C175.726 100.116 173.788 99.6139 170.944 99.6139C169.832 99.6032 168.723 99.7314 167.643 99.9958C166.636 100.258 165.718 100.785 164.985 101.522C164.597 101.907 164.293 102.368 164.092 102.876C163.891 103.384 163.798 103.928 163.818 104.474C163.818 105.466 164.435 105.961 165.669 105.96C166.227 106.015 166.784 105.849 167.22 105.498C167.578 105.036 167.744 104.453 167.683 103.872C167.629 103.409 167.678 102.94 167.828 102.499C167.978 102.058 168.224 101.656 168.549 101.322C169.281 100.805 170.17 100.557 171.065 100.618C171.545 100.558 172.032 100.631 172.472 100.829C172.913 101.028 173.29 101.343 173.562 101.742C174.06 102.823 174.281 104.01 174.206 105.197V107.448C174.052 107.443 173.896 107.437 173.746 107.437H173.069C171.086 107.377 169.105 107.616 167.194 108.146C166.129 108.463 165.147 109.006 164.313 109.737C163.444 110.47 162.798 111.431 162.448 112.51C162.263 113.082 162.167 113.679 162.166 114.28C162.164 114.656 162.201 115.032 162.278 115.4C162.459 116.37 162.909 117.269 163.577 117.995C164.15 118.615 164.85 119.105 165.63 119.431C166.409 119.757 167.25 119.911 168.095 119.882H168.323C169.589 119.876 170.84 119.6 171.99 119.071C172.864 118.664 173.674 118.133 174.395 117.494C174.628 118.16 175.063 118.738 175.64 119.147C176.217 119.556 176.908 119.776 177.615 119.776H181.493V118.771C181.002 118.78 180.511 118.76 180.022 118.712M171.654 118.334C171.134 118.616 170.552 118.767 169.959 118.774H169.903C169.327 118.782 168.76 118.629 168.265 118.333C167.866 118.094 167.519 117.776 167.247 117.398C167.001 117.025 166.811 116.617 166.684 116.188C166.483 115.473 166.387 114.732 166.401 113.989V113.548C166.419 112.745 166.552 111.949 166.796 111.184C167.058 110.427 167.552 109.771 168.208 109.31C168.677 109.009 169.193 108.786 169.734 108.65C170.295 108.572 170.861 108.535 171.427 108.54H174.2V115.589C173.992 116.014 173.743 116.418 173.457 116.795C172.985 117.442 172.366 117.968 171.65 118.33" fill="white"/>
<path d="M145.449 118.713C145.114 118.664 144.792 118.548 144.502 118.372C144.337 118.272 144.196 118.138 144.088 117.978C143.98 117.819 143.908 117.638 143.876 117.448C143.769 116.865 143.722 116.273 143.736 115.681V105.479C143.79 104.685 143.68 103.889 143.414 103.139C143.147 102.39 142.729 101.703 142.186 101.121C141.153 100.116 139.215 99.6139 136.371 99.6139C135.259 99.6032 134.15 99.7314 133.07 99.9958C132.063 100.258 131.145 100.785 130.412 101.522C130.024 101.907 129.72 102.368 129.519 102.876C129.318 103.384 129.225 103.928 129.245 104.474C129.245 105.466 129.862 105.961 131.097 105.96C131.654 106.015 132.211 105.849 132.647 105.498C133.005 105.036 133.171 104.453 133.11 103.872C133.056 103.409 133.106 102.941 133.255 102.5C133.405 102.059 133.651 101.656 133.975 101.322C134.708 100.805 135.597 100.557 136.492 100.618C136.972 100.558 137.458 100.631 137.899 100.829C138.339 101.028 138.716 101.343 138.988 101.742C139.486 102.822 139.708 104.01 139.633 105.197V107.448C139.478 107.443 139.321 107.437 139.172 107.437H138.494C136.512 107.377 134.532 107.616 132.621 108.146C131.557 108.463 130.574 109.006 129.74 109.737C128.871 110.47 128.226 111.431 127.876 112.51C127.69 113.082 127.594 113.679 127.593 114.28C127.591 114.656 127.629 115.032 127.706 115.4C127.887 116.369 128.337 117.268 129.004 117.995C129.577 118.615 130.277 119.105 131.057 119.431C131.837 119.756 132.678 119.91 133.523 119.882H133.749C135.017 119.877 136.269 119.6 137.421 119.071C138.294 118.664 139.103 118.134 139.823 117.495C140.056 118.162 140.491 118.74 141.068 119.149C141.645 119.558 142.336 119.778 143.043 119.778H146.921V118.773C146.43 118.782 145.939 118.762 145.45 118.713M137.082 118.336C136.562 118.618 135.98 118.769 135.387 118.776H135.331C134.755 118.783 134.188 118.631 133.693 118.335C133.294 118.096 132.947 117.777 132.675 117.4C132.429 117.026 132.238 116.619 132.11 116.19C131.91 115.474 131.815 114.734 131.829 113.991V113.55C131.847 112.747 131.979 111.951 132.224 111.185C132.486 110.429 132.98 109.773 133.636 109.312C134.105 109.011 134.621 108.788 135.162 108.651C135.723 108.573 136.289 108.537 136.855 108.542H139.628V115.59C139.42 116.016 139.171 116.42 138.885 116.797C138.413 117.444 137.794 117.97 137.078 118.331" fill="white"/>
<path d="M124.305 99.9156C123.787 98.2096 122.993 96.5994 121.955 95.1483C120.87 93.6548 119.429 92.4538 117.763 91.6533C115.896 90.7532 113.843 90.3033 111.77 90.34C109.697 90.3033 107.644 90.7532 105.777 91.6533C104.111 92.4538 102.671 93.6548 101.586 95.1483C100.548 96.5993 99.7539 98.2096 99.2357 99.9156C98.1831 103.421 98.1831 107.157 99.2357 110.662C99.7509 112.363 100.545 113.968 101.586 115.41C102.675 116.894 104.115 118.088 105.777 118.885C105.973 118.983 106.174 119.073 106.377 119.16C106.467 119.197 106.556 119.231 106.641 119.267C106.751 119.31 106.861 119.356 106.971 119.394C107.081 119.433 107.213 119.483 107.335 119.52C107.408 119.543 107.48 119.567 107.554 119.59C107.699 119.634 107.845 119.679 107.993 119.719H107.997C108.693 119.906 109.402 120.037 110.119 120.112C110.373 120.138 110.632 120.159 110.893 120.171H110.933C111.201 120.186 111.478 120.191 111.757 120.193H111.782C112.061 120.193 112.335 120.186 112.607 120.171H112.643C112.906 120.158 113.164 120.138 113.42 120.112C114.136 120.037 114.845 119.906 115.54 119.719H115.544C115.693 119.679 115.838 119.63 115.983 119.59L116.203 119.52C116.325 119.48 116.446 119.437 116.561 119.394C116.677 119.351 116.782 119.31 116.892 119.267C116.982 119.231 117.071 119.197 117.156 119.16C117.359 119.071 117.56 118.982 117.756 118.885C119.418 118.088 120.858 116.894 121.948 115.41C122.988 113.968 123.782 112.363 124.298 110.662C125.35 107.157 125.35 103.421 124.298 99.9156M119.457 110.46C119.264 111.902 118.911 113.319 118.404 114.683C117.96 115.981 117.099 117.096 115.954 117.854C114.673 118.569 113.229 118.944 111.761 118.944C110.293 118.944 108.85 118.569 107.569 117.854C106.424 117.096 105.562 115.981 105.119 114.683C104.611 113.319 104.258 111.903 104.066 110.46C103.86 108.743 103.765 107.014 103.782 105.285C103.782 103.696 103.83 102.309 103.924 101.124C104.028 99.881 104.245 98.6504 104.571 97.4467C104.836 96.3476 105.288 95.3021 105.908 94.356C106.511 93.5186 107.309 92.8396 108.233 92.377C109.335 91.8584 110.539 91.5895 111.757 91.5895C112.975 91.5895 114.178 91.8584 115.28 92.377C116.204 92.8402 117.002 93.5192 117.606 94.356C118.225 95.3024 118.677 96.3478 118.942 97.4467C119.268 98.6505 119.485 99.8811 119.59 101.124C119.685 102.31 119.732 103.697 119.731 105.285C119.748 107.014 119.653 108.743 119.448 110.46" fill="white"/>
<path d="M183.276 69.8826L174.913 61.541H183.276V69.8826Z" fill="#871537"/>
<path d="M191.637 69.8826L183.275 61.541H191.637V69.8826Z" fill="#871537"/>
<path d="M200 69.8826L191.637 61.541H200V69.8826Z" fill="#871537"/>
<path d="M183.276 78.2235L174.913 69.8818H183.276V78.2235Z" fill="#871537"/>
<path d="M191.637 78.2235L183.275 69.8818H191.637V78.2235Z" fill="#871537"/>
<path d="M200 78.2235L191.637 69.8818H200V78.2235Z" fill="#871537"/>
<path d="M191.637 86.5662L183.275 78.2246H191.637V86.5662Z" fill="#871537"/>
<path d="M200 86.5662L191.637 78.2246H200V86.5662Z" fill="#871537"/>
</g>
<defs>
<clipPath id="clip0_131_7517">
<rect width="134" height="64" fill="white" transform="translate(66 59.333)"/>
</clipPath>
</defs>
</svg>
