<svg width="267" height="182" viewBox="0 0 267 182" fill="none" xmlns="http://www.w3.org/2000/svg">
<path d="M131.13 98.0673C131.716 98.2313 132.05 98.3134 132.118 98.3134C132.262 98.3134 132.405 98.2723 132.534 98.1903C132.664 98.1083 132.752 97.9853 132.807 97.8145H133.134L133.277 101.293H132.923C132.718 100.603 132.446 100.049 132.118 99.6256C131.484 98.8328 130.632 98.4296 129.562 98.4296C128.478 98.4296 127.598 98.8601 126.91 99.7144C126.221 100.569 125.88 101.751 125.88 103.255C125.88 104.635 126.242 105.736 126.964 106.563C127.687 107.39 128.601 107.8 129.705 107.8C130.503 107.8 131.239 107.608 131.914 107.225C132.302 107.007 132.725 106.679 133.189 106.241L133.475 106.528C133.134 106.959 132.712 107.342 132.2 107.67C131.334 108.223 130.4 108.504 129.391 108.504C127.735 108.504 126.419 107.97 125.444 106.911C124.544 105.927 124.094 104.704 124.094 103.227C124.094 101.724 124.572 100.459 125.519 99.4342C126.521 98.3612 127.823 97.8213 129.426 97.8213C129.964 97.8213 130.537 97.9033 131.13 98.0673Z" fill="#ACA18E"/>
<path d="M134.218 108.244V107.957C134.613 107.909 134.913 107.766 135.111 107.506C135.309 107.253 135.65 106.556 136.134 105.414L139.352 97.8213H139.658L143.503 106.597C143.762 107.178 143.967 107.54 144.117 107.677C144.267 107.813 144.526 107.909 144.888 107.957V108.244H140.96V107.957C141.41 107.916 141.704 107.868 141.833 107.813C141.962 107.759 142.031 107.615 142.031 107.39C142.031 107.314 142.004 107.185 141.956 106.993C141.908 106.802 141.833 106.604 141.744 106.392L141.124 104.902H137.054C136.652 105.913 136.413 106.535 136.338 106.754C136.263 106.98 136.222 107.157 136.222 107.287C136.222 107.547 136.325 107.731 136.536 107.827C136.665 107.889 136.911 107.93 137.272 107.964V108.251H134.218V108.244ZM140.865 104.266L139.092 100.001L137.313 104.266H140.865Z" fill="#ACA18E"/>
<path d="M145.392 107.957C145.978 107.902 146.346 107.786 146.49 107.608C146.633 107.431 146.708 107.021 146.708 106.385V99.6803C146.708 99.1404 146.626 98.785 146.462 98.6141C146.298 98.4432 145.944 98.3339 145.385 98.2861V97.999H149.455C150.763 97.999 151.759 98.2519 152.454 98.7645C153.15 99.2702 153.497 99.9469 153.497 100.774C153.497 101.826 153.115 102.592 152.346 103.063C151.575 103.535 150.613 103.774 149.455 103.774C149.291 103.774 149.08 103.767 148.821 103.76C148.561 103.754 148.371 103.747 148.242 103.747V106.556C148.242 107.137 148.329 107.506 148.507 107.656C148.685 107.806 149.086 107.902 149.7 107.95V108.237H145.378V107.957H145.392ZM150.601 98.8602C150.163 98.6688 149.612 98.5731 148.943 98.5731C148.629 98.5731 148.432 98.6073 148.357 98.6688C148.282 98.7303 148.248 98.8739 148.248 99.0857V103.118C148.528 103.145 148.704 103.159 148.793 103.166C148.882 103.173 148.964 103.173 149.039 103.173C149.748 103.173 150.307 103.07 150.709 102.872C151.445 102.503 151.82 101.82 151.82 100.808C151.82 99.8649 151.411 99.2156 150.601 98.8602Z" fill="#ACA18E"/>
<path d="M153.975 107.958C154.602 107.91 155.012 107.821 155.195 107.678C155.38 107.534 155.475 107.165 155.475 106.57V99.6881C155.475 99.1208 155.38 98.7518 155.195 98.5877C155.012 98.4237 154.602 98.3281 153.975 98.2938V98.0068H158.542V98.2938C157.915 98.3212 157.507 98.4237 157.322 98.5877C157.139 98.7518 157.043 99.1208 157.043 99.6881V106.57C157.043 107.165 157.139 107.534 157.322 107.678C157.507 107.821 157.915 107.917 158.542 107.958V108.245H153.975V107.958Z" fill="#ACA18E"/>
<path d="M159.169 97.999H167.895L167.977 100.63H167.609C167.425 99.8033 167.2 99.2634 166.921 99.0173C166.641 98.7713 166.054 98.6415 165.162 98.6415H164.302V106.563C164.302 107.157 164.398 107.526 164.583 107.67C164.766 107.813 165.175 107.909 165.803 107.95V108.237H161.303V107.95C161.957 107.902 162.367 107.793 162.524 107.629C162.687 107.465 162.762 107.048 162.762 106.378V98.6415H161.896C161.044 98.6415 160.458 98.7645 160.151 99.0106C159.844 99.2566 159.612 99.7965 159.455 100.63H159.081L159.169 97.999Z" fill="#ACA18E"/>
<path d="M167.296 108.244V107.957C167.691 107.909 167.991 107.766 168.189 107.506C168.387 107.253 168.727 106.556 169.212 105.414L172.43 97.8213H172.736L176.581 106.597C176.841 107.178 177.045 107.54 177.195 107.677C177.345 107.813 177.604 107.909 177.965 107.957V108.244H174.038V107.957C174.488 107.916 174.782 107.868 174.911 107.813C175.04 107.759 175.108 107.615 175.108 107.39C175.108 107.314 175.082 107.185 175.033 106.993C174.986 106.802 174.911 106.604 174.822 106.392L174.202 104.902H170.132C169.73 105.913 169.491 106.535 169.416 106.754C169.341 106.98 169.3 107.157 169.3 107.287C169.3 107.547 169.402 107.731 169.614 107.827C169.743 107.889 169.989 107.93 170.35 107.964V108.251H167.296V108.244ZM173.95 104.266L172.177 100.001L170.397 104.266H173.95Z" fill="#ACA18E"/>
<path d="M178.395 107.957C178.961 107.895 179.329 107.793 179.5 107.649C179.67 107.506 179.751 107.144 179.751 106.563V99.6803C179.751 99.1336 179.67 98.7713 179.507 98.6005C179.343 98.4296 178.968 98.3271 178.395 98.2861V97.999H182.752V98.2861C182.185 98.3135 181.803 98.4091 181.606 98.5663C181.415 98.7235 181.313 99.0583 181.313 99.571V107.007C181.313 107.178 181.34 107.314 181.402 107.41C181.456 107.506 181.585 107.567 181.784 107.595C181.899 107.608 182.021 107.622 182.152 107.622C182.281 107.629 182.52 107.629 182.874 107.629C184.244 107.629 185.178 107.513 185.663 107.287C186.146 107.062 186.617 106.481 187.067 105.551H187.462L186.706 108.237H178.395V107.957Z" fill="#ACA18E"/>
<path d="M123.979 92.4695C124.606 92.4217 124.994 92.3055 125.144 92.1346C125.294 91.9638 125.369 91.5469 125.369 90.8908V84.1793C125.369 83.6189 125.288 83.2567 125.117 83.0927C124.947 82.9286 124.565 82.8261 123.972 82.7851V82.498H128.369V82.7851C127.769 82.8125 127.374 82.9149 127.203 83.0858C127.026 83.2567 126.937 83.6189 126.937 84.1726V87.3437C127.885 86.5304 128.662 85.8401 129.269 85.2729C130.353 84.2409 130.892 83.5848 130.892 83.2909C130.892 83.0858 130.803 82.9491 130.619 82.8808C130.435 82.8125 130.176 82.7851 129.835 82.7851V82.498H133.878V82.7851C133.387 82.8329 132.998 82.9286 132.712 83.0721C132.425 83.2157 132.03 83.5232 131.532 84.0017L128.519 86.8037L132.194 90.7883C132.862 91.5059 133.319 91.9502 133.557 92.1278C133.796 92.3055 134.15 92.4217 134.621 92.4764V92.7429H129.896V92.4764C130.326 92.4627 130.612 92.4285 130.762 92.3739C130.912 92.3192 130.987 92.2166 130.987 92.0595C130.987 91.9706 130.939 91.8408 130.837 91.6631C130.742 91.4854 130.585 91.2803 130.373 91.048L127.401 87.8289L126.924 88.2732V91.0753C126.924 91.6494 127.012 92.0185 127.183 92.1688C127.353 92.3261 127.735 92.4217 128.315 92.4764V92.7429H123.979V92.4695Z" fill="#ACA18E"/>
<path d="M136.857 83.6403C137.804 82.7313 138.977 82.2734 140.361 82.2734C141.752 82.2734 142.924 82.7313 143.872 83.6472C144.901 84.6382 145.42 85.964 145.42 87.618C145.42 89.2924 144.888 90.6319 143.825 91.6229C142.87 92.5115 141.718 92.9557 140.361 92.9557C138.916 92.9557 137.709 92.4636 136.754 91.4795C135.786 90.4748 135.302 89.1899 135.302 87.618C135.309 85.964 135.827 84.6382 136.857 83.6403ZM138.016 91.2266C138.657 92.0057 139.441 92.3952 140.368 92.3952C141.281 92.3952 142.059 92.0194 142.706 91.2607C143.354 90.5022 143.675 89.2924 143.675 87.6248C143.675 85.9367 143.347 84.7202 142.693 83.9684C142.038 83.2165 141.261 82.8407 140.368 82.8407C139.441 82.8407 138.657 83.2302 138.016 84.0094C137.375 84.7885 137.054 85.9914 137.054 87.6248C137.054 89.2445 137.375 90.4474 138.016 91.2266Z" fill="#ACA18E"/>
<path d="M146.169 92.45C146.735 92.3884 147.104 92.286 147.273 92.1424C147.444 91.9989 147.526 91.6367 147.526 91.0558V84.1734C147.526 83.6267 147.444 83.2644 147.28 83.0936C147.117 82.9227 146.742 82.8202 146.169 82.7792V82.4922H150.526V82.7792C149.96 82.8065 149.578 82.9022 149.381 83.0594C149.189 83.2166 149.087 83.5515 149.087 84.0641V91.5C149.087 91.6709 149.114 91.8076 149.175 91.9032C149.231 91.9989 149.36 92.0604 149.557 92.0878C149.674 92.1014 149.796 92.1151 149.925 92.1151C150.056 92.1219 150.294 92.1219 150.648 92.1219C152.019 92.1219 152.953 92.0058 153.436 91.7802C153.921 91.5547 154.391 90.9737 154.841 90.0443H155.237L154.48 92.7302H146.169V92.45Z" fill="#ACA18E"/>
<path d="M155.652 92.736V92.449C156.048 92.4012 156.347 92.2576 156.545 91.9979C156.743 91.7451 157.083 91.048 157.568 89.9066L160.786 82.3135H161.093L164.937 91.089C165.197 91.6698 165.401 92.0322 165.551 92.1688C165.701 92.3055 165.96 92.4012 166.321 92.449V92.736H162.394V92.449C162.845 92.408 163.138 92.3602 163.267 92.3055C163.396 92.2508 163.464 92.1073 163.464 91.8817C163.464 91.8066 163.438 91.6767 163.389 91.4854C163.342 91.294 163.267 91.0957 163.178 90.884L162.565 89.3872H158.495C158.093 90.3986 157.854 91.0206 157.779 91.2393C157.704 91.4648 157.663 91.6425 157.663 91.7724C157.663 92.0322 157.765 92.2166 157.977 92.3124C158.106 92.3738 158.352 92.4148 158.713 92.449V92.736H155.652ZM162.306 88.7584L160.533 84.4938L158.754 88.7584H162.306Z" fill="#ACA18E"/>
<path d="M174.052 82.5605C174.632 82.7245 174.959 82.8065 175.048 82.8065C175.266 82.8065 175.423 82.7655 175.518 82.6766C175.614 82.5878 175.689 82.4647 175.757 82.3076H176.097L176.221 85.5677H175.866C175.552 84.8158 175.225 84.2554 174.884 83.8931C174.277 83.2507 173.487 82.9227 172.511 82.9227C171.523 82.9227 170.651 83.2986 169.901 84.0504C169.151 84.8021 168.776 86.046 168.776 87.7752C168.776 89.2036 169.151 90.3176 169.901 91.1172C170.651 91.9168 171.571 92.3201 172.675 92.3201C172.86 92.3201 173.078 92.2995 173.33 92.2654C173.582 92.2312 173.82 92.1765 174.045 92.1013C174.413 91.9783 174.638 91.8758 174.734 91.787C174.823 91.6981 174.87 91.5682 174.87 91.3974V88.9302C174.87 88.3356 174.789 87.9596 174.619 87.8162C174.448 87.6726 174.08 87.577 173.514 87.5427V87.2557H177.448V87.5427C177.066 87.5701 176.814 87.6316 176.684 87.7342C176.472 87.8982 176.371 88.2262 176.371 88.7319V91.7801C176.371 91.9646 175.928 92.2039 175.041 92.5045C174.155 92.8053 173.303 92.9556 172.485 92.9556C170.978 92.9556 169.703 92.5182 168.667 91.6298C167.528 90.6592 166.956 89.3539 166.956 87.7136C166.956 86.2715 167.412 85.0413 168.319 84.0094C169.321 82.8748 170.644 82.3076 172.3 82.3076C172.887 82.3144 173.48 82.3964 174.052 82.5605Z" fill="#ACA18E"/>
<path d="M177.973 92.4491C178.573 92.3807 178.955 92.2714 179.105 92.1142C179.255 91.957 179.33 91.5469 179.33 90.8771V84.1726C179.33 83.6189 179.248 83.2567 179.077 83.0927C178.906 82.9286 178.538 82.8261 177.973 82.7851V82.498H182.254V82.7851C181.689 82.8261 181.321 82.9286 181.15 83.0927C180.979 83.2567 180.897 83.6189 180.897 84.1726V87.1865H185.588V84.1726C185.588 83.6189 185.506 83.2567 185.343 83.0927C185.179 82.9286 184.804 82.8261 184.231 82.7851V82.498H188.512V82.7851C187.947 82.8261 187.578 82.9286 187.409 83.0927C187.238 83.2567 187.156 83.6189 187.156 84.1726V91.0548C187.156 91.6152 187.238 91.9775 187.409 92.1346C187.578 92.2918 187.947 92.3944 188.512 92.4491V92.7361H184.231V92.4491C184.838 92.3875 185.219 92.2782 185.363 92.121C185.513 91.9637 185.588 91.5469 185.588 90.8771V87.8699H180.897V91.0617C180.897 91.6221 180.979 91.9843 181.15 92.1415C181.321 92.2987 181.689 92.4012 182.254 92.4491V92.7361H177.973V92.4491Z" fill="#ACA18E"/>
<path d="M189.105 92.736V92.449C189.501 92.4012 189.801 92.2576 189.999 91.9979C190.197 91.7451 190.537 91.048 191.021 89.9066L194.239 82.3135H194.546L198.391 91.089C198.65 91.6699 198.855 92.0322 199.004 92.1688C199.154 92.3055 199.414 92.4012 199.775 92.449V92.736H195.849V92.449C196.298 92.408 196.591 92.3602 196.721 92.3055C196.85 92.2508 196.919 92.1073 196.919 91.8817C196.919 91.8066 196.891 91.6767 196.844 91.4854C196.796 91.294 196.721 91.0958 196.632 90.884L196.012 89.394H191.942C191.539 90.4055 191.301 91.0274 191.226 91.2462C191.151 91.4717 191.11 91.6494 191.11 91.7793C191.11 92.0389 191.213 92.2235 191.424 92.3192C191.553 92.3807 191.799 92.4217 192.16 92.4558V92.7429H189.105V92.736ZM195.753 88.7584L193.98 84.4938L192.201 88.7584H195.753Z" fill="#ACA18E"/>
<path d="M201.022 89.6195C201.281 90.3166 201.588 90.8702 201.943 91.2802C202.556 91.9979 203.313 92.3601 204.227 92.3601C204.717 92.3601 205.147 92.2029 205.501 91.8885C205.862 91.5741 206.04 91.1436 206.04 90.5831C206.04 90.0774 205.862 89.6399 205.501 89.2709C205.262 89.0317 204.771 88.6763 204.008 88.2047L202.693 87.3778C202.297 87.1249 201.976 86.872 201.744 86.6123C201.308 86.1271 201.09 85.5871 201.09 84.9926C201.09 84.2134 201.349 83.5642 201.868 83.0447C202.386 82.5253 203.074 82.2656 203.927 82.2656C204.281 82.2656 204.703 82.3544 205.194 82.5253C205.692 82.6962 205.972 82.785 206.04 82.785C206.23 82.785 206.36 82.7372 206.435 82.6483C206.51 82.5595 206.565 82.4296 206.605 82.2656H206.919L207.26 85.5598H206.892C206.64 84.5688 206.237 83.8717 205.685 83.4822C205.133 83.0857 204.581 82.8944 204.035 82.8944C203.613 82.8944 203.245 83.0174 202.931 83.2703C202.618 83.5163 202.461 83.8648 202.461 84.3091C202.461 84.7055 202.583 85.0472 202.822 85.3275C203.06 85.6145 203.435 85.9152 203.946 86.2296L205.303 87.0702C206.148 87.5965 206.748 88.0749 207.096 88.5123C207.437 88.9565 207.614 89.4828 207.614 90.0842C207.614 90.8976 207.308 91.5741 206.701 92.1141C206.087 92.6609 205.31 92.9273 204.363 92.9273C203.885 92.9273 203.388 92.8385 202.869 92.654C202.351 92.4694 202.051 92.3806 201.976 92.3806C201.793 92.3806 201.676 92.4353 201.608 92.5446C201.547 92.654 201.506 92.777 201.486 92.9H201.145L200.688 89.6058H201.022V89.6195Z" fill="#ACA18E"/>
<path d="M209.606 89.6195C209.864 90.3166 210.171 90.8702 210.526 91.2802C211.14 91.9979 211.896 92.3601 212.81 92.3601C213.3 92.3601 213.73 92.2029 214.085 91.8885C214.446 91.5741 214.623 91.1436 214.623 90.5831C214.623 90.0774 214.446 89.6399 214.085 89.2709C213.846 89.0317 213.354 88.6763 212.592 88.2047L211.276 87.3778C210.88 87.1249 210.56 86.872 210.328 86.6123C209.892 86.1271 209.674 85.5871 209.674 84.9926C209.674 84.2134 209.932 83.5642 210.451 83.0447C210.969 82.5253 211.658 82.2656 212.51 82.2656C212.864 82.2656 213.286 82.3544 213.778 82.5253C214.275 82.6962 214.555 82.785 214.623 82.785C214.814 82.785 214.944 82.7372 215.019 82.6483C215.094 82.5595 215.148 82.4296 215.188 82.2656H215.502L215.844 85.5598H215.476C215.223 84.5688 214.82 83.8717 214.268 83.4822C213.717 83.0857 213.164 82.8944 212.618 82.8944C212.196 82.8944 211.828 83.0174 211.515 83.2703C211.201 83.5163 211.044 83.8648 211.044 84.3091C211.044 84.7055 211.166 85.0472 211.405 85.3275C211.644 85.6145 212.019 85.9152 212.53 86.2296L213.887 87.0702C214.732 87.5965 215.332 88.0749 215.68 88.5123C216.02 88.9565 216.198 89.4828 216.198 90.0842C216.198 90.8976 215.891 91.5741 215.284 92.1141C214.671 92.6609 213.893 92.9273 212.946 92.9273C212.469 92.9273 211.971 92.8385 211.453 92.654C210.934 92.4694 210.635 92.3806 210.56 92.3806C210.376 92.3806 210.26 92.4353 210.192 92.5446C210.13 92.654 210.089 92.777 210.069 92.9H209.728L209.271 89.6058H209.606V89.6195Z" fill="#ACA18E"/>
<path d="M217.445 92.4491C218.073 92.4012 218.481 92.3124 218.666 92.1688C218.849 92.0253 218.945 91.6563 218.945 91.0617V84.1793C218.945 83.6121 218.849 83.243 218.666 83.079C218.481 82.9149 218.073 82.8193 217.445 82.7851V82.498H222.013V82.7851C221.386 82.8125 220.976 82.9149 220.793 83.079C220.608 83.243 220.513 83.6121 220.513 84.1793V91.0617C220.513 91.6563 220.608 92.0253 220.793 92.1688C220.976 92.3124 221.386 92.4081 222.013 92.4491V92.7361H217.445V92.4491Z" fill="#ACA18E"/>
<path d="M88.7808 97.5264L78.4319 107.826L91.6509 121.078H105.62V107.826H99.0069L88.7808 97.5264Z" fill="#ACA18E"/>
<path d="M91.6727 67.8722L65.2348 94.3763V82.2314H65.2824V59.5889H52.3566L44.0326 73.9822L52.0158 81.8965V120.887H65.2348V114.258L74.5473 104.922L98.2856 81.1243H104.898V67.8722H91.6727Z" fill="#ACA18E"/>
</svg>
