<svg width="267" height="182" viewBox="0 0 267 182" fill="none" xmlns="http://www.w3.org/2000/svg">
<path d="M51.2751 89.0708L56.9645 83.3722H68.3434L54.6942 97.0561L51.2751 93.6315C50.0195 92.3738 50.0195 90.3285 51.2751 89.0708ZM60.2133 72.0112H68.2582L76.3031 80.0691H56.9881V75.2416C56.9881 73.4268 58.4014 72.0112 60.2133 72.0112ZM57.0008 107.448V99.39L65.0457 91.3321V110.678H60.226C58.4141 110.678 57.0008 109.263 57.0008 107.448ZM68.3434 110.691V99.3066L82.0052 112.965L78.5862 116.39C77.3305 117.647 75.2885 117.647 74.0328 116.39L68.3434 110.691ZM70.601 69.7009L74.0074 66.2763C75.2631 65.0186 77.3051 65.0186 78.5608 66.2763L84.2502 71.9749V83.3722L70.601 69.7009ZM76.3031 102.597H95.6055V107.424C95.6055 109.239 94.1922 110.655 92.393 110.655H84.348L76.3031 102.597ZM97.9012 85.6226L101.308 89.0472C102.563 90.3049 102.563 92.3502 101.308 93.6079L95.6182 99.3066H84.252L97.9012 85.6226ZM87.537 72.0003H92.3567C94.1686 72.0003 95.5819 73.4159 95.5819 75.2307V83.2887L87.537 91.3339V72.0003ZM116.792 76.9712C116.792 76.3541 116.925 75.6409 117.118 75.2289H118.146C117.988 75.6645 117.905 76.209 117.905 76.6445C117.905 78.0728 118.497 79.0038 120.574 79.0038H125.852L125.285 77.3342C124.922 76.2942 125.031 75.5683 125.526 75.0347C125.912 74.6228 126.444 74.3814 127.374 74.3814H130.441V79.0038H133.051V74.3814H134.21V80.0673H129.282V75.4449H127.095C126.479 75.4449 126.189 75.6754 126.189 76.1472C126.189 76.3523 126.249 76.5701 126.334 76.8133L127.144 79.2216V80.0691H120.463C117.492 80.0691 116.79 78.4594 116.79 76.9712H116.792ZM117.082 87.4864H121.635V96.597H133.485L142.594 87.4864H149.044L137.472 99.0652L149.044 110.655H142.594L133.125 101.17H121.637V110.655H117.084V87.4864H117.082ZM120.597 81.8713L121.418 81.0492L122.239 81.8713L121.418 82.6934L120.597 81.8713ZM122.241 81.8713L123.061 81.0492L123.882 81.8713L123.061 82.6934L122.241 81.8713ZM127.385 72.5811L128.206 71.7589L129.026 72.5811L128.206 73.4032L127.385 72.5811ZM129.028 72.5811L129.862 71.7589L130.682 72.5811L129.862 73.4032L129.028 72.5811ZM131.166 81.8713L131.987 81.0492L132.808 81.8713L131.987 82.6934L131.166 81.8713ZM132.81 81.8713L133.63 81.0492L134.451 81.8713L133.63 82.6934L132.81 81.8713ZM136.506 81.6299H138.269C139.211 81.6299 139.84 81.4484 139.84 80.5047V80.0691H138.584C136.568 80.0691 135.939 79.1018 135.951 77.238C135.964 75.2779 136.627 74.3832 138.584 74.3832H140.999V79.0056H147.414V77.2507C147.414 76.2217 146.991 75.8841 145.941 75.8841H142.969V75.0366L145.203 72.0112H146.495L144.357 74.8297H145.975C147.955 74.8297 148.571 75.6881 148.571 77.3578V79.0038H150.891V72.0112H152.05V80.0691H140.985V80.492C140.985 82.0655 139.874 82.6934 138.267 82.6934H136.504V81.6281L136.506 81.6299ZM139.84 79.0038V75.4467H138.584C137.292 75.4467 137.098 75.8696 137.111 77.238C137.124 78.4594 137.243 79.0038 138.584 79.0038H139.84ZM153.127 87.4864H180.606V92.0472H157.68V96.597H175.618V101.17H157.68V110.655H153.127V87.4864ZM153.839 72.0112H154.998V80.0691H153.839V72.0112ZM158.925 77.2743H159.939C159.794 77.855 159.686 78.4485 159.686 79.3922C159.686 80.6862 160.157 81.7642 161.764 81.7642C162.501 81.7642 163.092 81.5228 163.418 81.1109C163.696 80.7479 163.793 80.2524 163.793 79.5265L163.806 72.013H164.966V79.0056H167.575V74.3832H168.734V80.0691H164.953C164.795 81.7751 163.612 82.8277 161.692 82.8277C159.421 82.8277 158.588 81.3032 158.588 79.6336C158.588 78.7624 158.745 77.8423 158.927 77.2743H158.925ZM165.689 81.8713L166.509 81.0492L167.33 81.8713L166.509 82.6934L165.689 81.8713ZM167.332 81.8713L168.153 81.0492L168.974 81.8713L168.153 82.6934L167.332 81.8713ZM171.028 81.6299H172.791C173.734 81.6299 174.362 81.4484 174.362 80.5047V80.0691H173.107C171.114 80.0691 170.474 79.1018 170.474 77.238C170.474 75.2416 171.199 74.3832 173.107 74.3832H175.522V79.0056H178.131V74.3832H180.269C182.335 74.3832 183.181 75.2906 183.181 77.2743V79.0038H185.585V74.3814H186.745V79.0038H189.354V72.0112H190.514V80.0691H175.524V80.492C175.524 82.0655 174.4 82.6934 172.793 82.6934H171.03V81.6281L171.028 81.6299ZM174.36 79.0038V75.4467H173.105C171.824 75.4467 171.632 75.895 171.632 77.238C171.632 78.4358 171.789 79.0292 173.105 79.0165L174.36 79.0038ZM182.019 79.0038V77.2743C182.019 75.8587 181.585 75.4467 180.267 75.4467H179.289V79.0038H182.019ZM184.52 72.5811L185.341 71.7589L186.162 72.5811L185.341 73.4032L184.52 72.5811ZM184.714 87.4864H189.267V96.597H210.539V87.4864H215.092V110.655H210.539V101.17H189.267V110.655H184.714V87.4864ZM186.163 72.5811L186.984 71.7589L187.805 72.5811L186.984 73.4032L186.163 72.5811ZM192.298 72.0112H193.458V80.0691H192.298V72.0112ZM197.25 76.9712C197.25 76.3541 197.383 75.6409 197.577 75.2289H198.604C198.446 75.6645 198.363 76.209 198.363 76.6445C198.363 78.0728 198.955 79.0038 201.032 79.0038H206.395V74.3814H207.555V79.0038H210.164V74.3814H211.324V79.0038H213.933V74.3814H215.092V80.0673H200.923C197.952 80.0673 197.25 78.4576 197.25 76.9694V76.9712ZM200.874 74.3832L201.695 73.5611L202.516 74.3832L201.695 75.2053L200.874 74.3832ZM202.518 74.3832L203.338 73.5611L204.159 74.3832L203.338 75.2053L202.518 74.3832ZM209.1 81.8713L209.921 81.0492L210.742 81.8713L209.921 82.6934L209.1 81.8713ZM210.744 81.8713L211.565 81.0492L212.385 81.8713L211.565 82.6934L210.744 81.8713ZM213.692 81.8713L214.513 81.0492L215.333 81.8713L214.513 82.6934L213.692 81.8713Z" fill="#43B02A"/>
</svg>
