<svg width="267" height="182" viewBox="0 0 267 182" fill="none" xmlns="http://www.w3.org/2000/svg">
<path d="M72.5967 72.8467L72.9546 73.0403L73.021 74.4324L73.1092 73.6606C73.1799 74.62 73.0637 75.5394 73.0333 76.4977C73.0064 77.3471 73.0149 78.2068 73.0145 79.0577L73.0103 93.4108C73.0105 95.3184 72.966 97.2641 73.0588 99.1662C73.13 100.627 74.4298 99.5094 74.9977 99.1727C78.3915 97.1606 81.7458 95.075 85.1331 93.0554L104.138 81.7596L110.293 77.9932C110.824 77.6734 111.565 77.3582 112.06 77.0282C113.729 75.9469 115.503 74.8029 117.258 73.8732C119.146 72.8729 122.252 73.1153 124.357 73.1157L132.291 73.1206L139.213 73.1161C141.05 73.1135 143.859 72.8302 145.335 73.9541C146.034 75.5199 145.925 76.3826 145.925 78.034L145.922 81.885V99.3822C145.923 100.956 145.928 102.996 145.936 104.619C145.971 104.678 146.001 104.727 146.024 104.766C146.888 105.006 149.524 102.982 150.369 102.436C152.774 100.879 155.158 99.2155 157.576 97.6779L193.866 74.2647C194.504 73.8544 195.039 73.5388 195.809 73.4061C197.286 73.1518 198.711 73.0821 200.211 73.1146C202.875 73.1736 205.599 72.975 208.246 73.2544C209.012 73.3353 209.623 74.1075 210 74.6956V97.384C209.958 97.687 209.849 98.5983 209.718 98.8162C208.737 100.449 206.568 101.602 204.998 102.528L200.469 105.214L196.204 107.75C195.625 108.094 194.771 108.956 194.084 108.549C193.979 108.166 194.028 104.418 194.03 103.798L194.033 91.5181C194.033 90.5744 194.131 85.0724 193.886 84.7059C193.213 84.4768 190.521 86.5163 189.891 86.946C188.085 88.1771 186.213 89.2794 184.367 90.4397C182.468 91.6328 180.592 93.0134 178.703 94.2209L164.886 103.039C163.851 103.71 162.843 104.405 161.792 105.062C160.443 105.907 158.721 107.391 157.135 107.724C155.455 108.076 152.995 107.954 151.226 107.953L143.12 107.947L137.704 107.952C135.834 107.956 132.004 108.269 130.522 107.042C129.809 105.571 130.063 99.9137 130.064 97.9324L130.072 83.9482C130.072 81.7175 130.079 79.4719 130.063 77.2407C130.061 76.9859 130.058 76.5179 129.864 76.3461C128.998 76.3143 125.117 78.8853 124.164 79.4397C119.865 81.9218 115.601 84.4632 111.373 87.0632L108.046 89.0652C107.535 89.3711 106.592 89.8248 106.249 90.2936C106.293 90.76 110.534 94.7829 111.204 95.4473L119.339 103.59C120.214 104.465 122.189 106.241 122.794 107.183L122.766 107.453C121.537 108.149 119.833 107.784 118.47 107.9C117.942 107.945 117.197 107.847 116.691 107.948L110.985 107.954C109.62 107.955 108.365 107.996 107.003 107.833C105.067 107.602 104.37 106.487 103.074 105.215L98.1781 100.352C97.4497 99.6418 95.6433 97.6627 94.8721 97.3035C93.5121 97.5154 92.1515 98.5843 90.9293 99.3063L82.3981 104.396C81.5981 104.881 80.7532 105.344 79.9691 105.84C78.4675 106.841 76.843 107.926 74.9672 107.943C70.4461 107.984 65.9242 107.922 61.4028 107.958C60.5696 107.965 59.7868 107.924 58.972 107.741C58.0877 107.542 57.6414 107.12 57 106.538V83.2842C57.6857 83.0077 58.5333 81.2003 59.4325 80.6604C60.1892 80.206 61.0731 79.7924 61.8023 79.3451C65.3712 77.1309 68.9697 74.9645 72.5967 72.8467Z" fill="white"/>
<path d="M122.794 107.183C122.936 107.377 122.993 107.716 122.899 107.942C122.732 108.036 117.016 108.033 116.691 107.947C117.197 107.847 117.942 107.944 118.47 107.899C119.833 107.783 121.537 108.148 122.766 107.452L122.794 107.183Z" fill="white"/>
</svg>
