<svg width="2551" height="437" viewBox="0 0 2551 437" fill="none" xmlns="http://www.w3.org/2000/svg">
<path d="M4.92143 177.128C24.8588 182.534 44.707 188.266 64.4582 194.319C74.011 197.305 88.2782 201.292 96.5313 206.043C102.256 209.393 107.107 214.051 110.688 219.634C125.073 242.344 110.667 272.633 105.602 295.998C103.152 307.303 101.398 319.583 108.041 329.924C114.524 340.014 127.575 345.25 138.869 347.603C134.09 363.331 129.877 380.999 125.917 396.997C125.156 399.314 124.589 401.568 123.978 403.923C119.678 402.293 114.388 401.043 109.926 399.686C82.2561 391.271 49.5811 381.424 33.5511 355.301C15.5855 326.024 27.3868 289.565 36.0839 258.965C45.6178 225.421 34.6955 206.094 0 197.52C1.21733 193.824 4.37935 180.818 4.92143 177.128Z" fill="#F4632A"/>
<path d="M323.929 268.651C333.546 267.079 408.131 285.477 419.399 288.883C416.897 294.862 414.689 302.721 412.784 309.001C322.589 284.242 372.475 405.469 295.074 433.426C265.114 442.363 232.718 432.464 202.715 426.304C203.623 420.464 206.258 411.732 207.902 405.76L217.987 369.674C290.701 392.398 262.198 302.003 302.81 275.761C309.505 271.435 316.191 269.829 323.929 268.651Z" fill="#F4632A"/>
<path d="M309.066 34.2372C314.656 35.6881 320.225 37.2234 325.769 38.8426C341.967 43.693 359.246 49.6394 373.569 58.6868C385.73 66.368 395.685 76.5664 401.735 89.7188C423.532 137.111 379.326 188.928 396.418 219.958C403.469 232.759 417.353 237.509 430.54 241.298C429.133 248.581 427.289 255.131 425.304 262.271L420.006 260.62C414.221 258.937 408.449 257.205 402.689 255.424C386.061 250.193 346.239 236.682 332.916 227.03C327.624 223.236 323.274 218.277 320.202 212.535C302.227 179.222 340.13 141.666 325.845 109.362C320.868 98.107 305.189 93.3016 294.116 89.8936C298.709 72.7238 305.345 51.2368 309.066 34.2372Z" fill="#F4632A"/>
<path d="M155.399 0.45018C172.953 -2.0769 209.416 6.67098 227.187 10.8845C226.356 13.4405 225.569 16.3481 224.942 18.979C221.111 35.0603 215.809 51.2837 212.2 67.3688C207.933 65.8179 203.513 64.728 199.015 64.1172C155.109 58.4162 158.452 110.65 146.142 138.177C133.918 165.514 112.905 168.549 86.0682 165C71.6958 163.191 57.4015 160.807 43.2196 157.854C32.8782 155.724 22.6667 153.128 12.3306 151.027C13.5976 148.141 17.5117 133.176 18.0249 129.961C67.1435 145.895 75.6505 110.874 84.7494 72.7381C93.9971 33.9775 113.177 5.20771 155.399 0.45018Z" fill="#F4632A"/>
<path d="M2494.42 305.789C2455.94 305.789 2434.06 290.638 2434.06 262.982V262.261H2460.03V264.185C2460.03 279.816 2469.41 284.866 2494.42 284.866C2517.74 284.866 2524.72 280.057 2524.72 269.475C2524.72 259.615 2518.95 256.489 2501.87 254.084L2469.17 249.755C2446.56 246.87 2432.85 237.25 2432.85 217.29C2432.85 196.368 2451.85 181.457 2488.65 181.457C2525.2 181.457 2547.32 196.127 2547.32 224.504V225.226H2521.59V223.783C2521.59 209.594 2514.38 202.139 2487.92 202.139C2466.04 202.139 2458.35 206.949 2458.35 218.252C2458.35 227.631 2463.16 230.998 2481.19 233.402L2508.85 237.25C2537.22 240.857 2550.21 250.477 2550.21 270.197C2550.21 292.562 2528.09 305.789 2494.42 305.789Z" fill="white"/>
<path d="M2421.66 303.379H2394.24C2368.51 303.379 2352.64 292.076 2352.64 262.977V205.501H2332.44V183.857H2352.64V157.644H2378.37V183.857H2421.66V205.501H2378.37V261.534C2378.37 276.204 2385.11 280.052 2400.02 280.052H2421.66V303.379Z" fill="white"/>
<path d="M2262.01 305.789C2222.81 305.789 2197.07 283.664 2197.07 243.743C2197.07 206.468 2222.57 181.457 2261.52 181.457C2298.56 181.457 2323.81 201.899 2323.81 238.212C2323.81 242.541 2323.57 245.908 2322.85 249.515H2221.36C2222.33 272.602 2233.63 284.866 2261.28 284.866C2286.29 284.866 2296.63 276.69 2296.63 262.501V260.577H2322.61V262.742C2322.61 288.233 2297.6 305.789 2262.01 305.789ZM2261.04 201.899C2234.59 201.899 2223.05 213.683 2221.6 235.086H2299.28V234.605C2299.28 212.48 2286.53 201.899 2261.04 201.899Z" fill="white"/>
<path d="M2088.83 303.375H2062.85V142.249H2088.83V231.229H2122.97L2158.81 183.853H2189.11L2144.14 241.329L2188.87 303.375H2158.33L2122.97 254.556H2088.83V303.375Z" fill="white"/>
<path d="M1981.6 305.789C1942.16 305.789 1916.43 280.538 1916.43 243.743C1916.43 206.468 1942.16 181.457 1981.6 181.457C2017.43 181.457 2043.65 201.658 2043.65 231.479V233.883H2017.92V232.44C2017.92 213.923 2004.45 204.785 1981.12 204.785C1954.19 204.785 1942.16 217.53 1942.16 243.743C1942.16 269.475 1954.19 282.462 1981.12 282.462C2004.45 282.462 2017.92 273.323 2017.92 254.806V253.122H2043.65V255.768C2043.65 285.588 2017.43 305.789 1981.6 305.789Z" fill="white"/>
<path d="M1820.14 305.789C1795.37 305.789 1779.74 294.245 1779.74 274.526C1779.74 256.008 1794.65 246.389 1818.22 243.743L1872.57 237.972V230.998C1872.57 211.278 1863.91 204.304 1841.06 204.304C1818.94 204.304 1808.12 211.518 1808.12 229.074V230.036H1782.39V229.074C1782.39 201.899 1804.99 181.457 1842.99 181.457C1880.98 181.457 1898.06 202.139 1898.06 230.757V303.384H1874.25V273.564H1872.57C1866.31 293.764 1847.32 305.789 1820.14 305.789ZM1805.71 272.842C1805.71 282.462 1812.21 287.031 1827.12 287.031C1854.29 287.031 1872.57 276.93 1872.57 253.363L1825.67 258.653C1812.21 260.337 1805.71 263.463 1805.71 272.842Z" fill="white"/>
<path d="M1689.12 303.384H1663.14V183.862H1686.95V216.087H1688.64C1692.24 196.849 1705.23 181.457 1729.76 181.457C1756.93 181.457 1768.72 200.937 1768.72 223.542V239.174H1742.98V228.593C1742.98 211.518 1735.77 203.582 1717.97 203.582C1697.53 203.582 1689.12 214.885 1689.12 236.288V303.384Z" fill="white"/>
<path d="M1535.24 303.375H1511.43V142.249H1537.4V216.319H1538.85C1543.66 196.118 1559.53 181.448 1588.15 181.448C1624.94 181.448 1645.14 206.459 1645.14 243.734C1645.14 280.528 1624.7 305.779 1586.7 305.779C1559.53 305.779 1541.97 292.793 1536.92 268.985H1535.24V303.375ZM1537.4 244.937C1537.4 269.947 1552.8 281.971 1578.53 281.971C1604.74 281.971 1619.17 272.352 1619.17 243.734C1619.17 214.876 1604.5 205.016 1579.01 205.016C1552.07 205.016 1537.4 217.521 1537.4 243.013V244.937Z" fill="white"/>
<path d="M1389.45 303.384H1363.48V183.862H1387.29V220.897H1388.97C1392.58 200.696 1408.45 181.457 1438.75 181.457C1471.94 181.457 1488.29 203.823 1488.29 231.479V303.384H1462.32V238.453C1462.32 216.087 1452.22 204.785 1427.45 204.785C1401.24 204.785 1389.45 218.252 1389.45 244.224V303.384Z" fill="white"/>
<path d="M1282.22 305.789C1243.02 305.789 1217.29 283.664 1217.29 243.743C1217.29 206.468 1242.78 181.457 1281.74 181.457C1318.78 181.457 1344.03 201.899 1344.03 238.212C1344.03 242.541 1343.79 245.908 1343.06 249.515H1241.58C1242.54 272.602 1253.85 284.866 1281.5 284.866C1306.51 284.866 1316.85 276.69 1316.85 262.501V260.577H1342.82V262.742C1342.82 288.233 1317.81 305.789 1282.22 305.789ZM1281.26 201.899C1254.81 201.899 1243.26 213.683 1241.82 235.086H1319.5V234.605C1319.5 212.48 1306.75 201.899 1281.26 201.899Z" fill="white"/>
<path d="M1096.36 344.266H1070.39V183.862H1094.2V217.049H1096.36C1101.17 194.925 1118.01 181.457 1146.14 181.457C1183.18 181.457 1204.1 206.708 1204.1 243.743C1204.1 280.778 1183.66 305.789 1146.38 305.789C1119.45 305.789 1102.13 291.6 1097.33 269.716H1096.36V344.266ZM1096.36 245.667C1096.36 270.197 1111.99 282.221 1137.49 282.221C1163.22 282.221 1178.13 272.361 1178.13 243.743C1178.13 214.885 1162.98 205.266 1137.97 205.266C1111.27 205.266 1096.36 217.771 1096.36 243.503V245.667Z" fill="white"/>
<path d="M984.93 305.789C945.25 305.789 918.556 280.538 918.556 243.743C918.556 206.468 945.25 181.457 984.93 181.457C1024.85 181.457 1051.54 206.468 1051.54 243.743C1051.54 280.538 1024.85 305.789 984.93 305.789ZM984.93 282.702C1014.03 282.702 1026.05 268.994 1026.05 243.743C1026.05 218.252 1014.03 204.304 984.93 204.304C956.072 204.304 944.047 218.252 944.047 243.743C944.047 268.994 956.072 282.702 984.93 282.702Z" fill="white"/>
<path d="M842.59 305.789C803.391 305.789 777.659 283.664 777.659 243.743C777.659 206.468 803.151 181.457 842.109 181.457C879.143 181.457 904.394 201.899 904.394 238.212C904.394 242.541 904.154 245.908 903.432 249.515H801.948C802.91 272.602 814.213 284.866 841.868 284.866C866.879 284.866 877.22 276.69 877.22 262.501V260.577H903.192V262.742C903.192 288.233 878.181 305.789 842.59 305.789ZM841.628 201.899C815.175 201.899 803.632 213.683 802.189 235.086H879.865V234.605C879.865 212.48 867.119 201.899 841.628 201.899Z" fill="white"/>
<path d="M659.313 303.375H633.341V142.249H659.313V220.407H660.756C664.844 200.206 679.513 181.448 710.055 181.448C743.001 181.448 759.113 203.092 759.113 232.191V303.375H733.382V238.443C733.382 214.395 722.56 204.775 697.79 204.775C669.413 204.775 659.313 220.167 659.313 245.418V303.375Z" fill="white"/>
<path d="M617.095 303.379H589.679C563.948 303.379 548.076 292.076 548.076 262.977V205.501H527.875V183.857H548.076V157.644H573.808V183.857H617.095V205.501H573.808V261.534C573.808 276.204 580.541 280.052 595.451 280.052H617.095V303.379Z" fill="white"/>
</svg>
